<svg xmlns="http://www.w3.org/2000/svg" xmlns:xlink="http://www.w3.org/1999/xlink" width="31" height="31" viewBox="0 0 31 31" fill="none">
<circle cx="15.5" cy="15.5" r="15" stroke="rgba(255, 255, 255, 1)" stroke-width="1"   >
</circle>
<g >
<path     fill="#A6A6A6"  d="M15.234 21.614C17.592 21.614 19.482 20.21 19.482 17.852C19.482 16.034 18.24 14.882 16.692 14.504L16.692 14.414C18.096 13.928 19.032 12.848 19.032 11.246C19.032 9.158 17.412 7.952 15.18 7.952C13.668 7.952 12.498 8.618 11.508 9.518L12.39 10.562C13.146 9.806 14.064 9.284 15.126 9.284C16.512 9.284 17.358 10.112 17.358 11.372C17.358 12.794 16.44 13.892 13.704 13.892L13.704 15.152C16.764 15.152 17.808 16.196 17.808 17.798C17.808 19.31 16.71 20.246 15.126 20.246C13.632 20.246 12.642 19.526 11.868 18.734L11.022 19.796C11.886 20.75 13.182 21.614 15.234 21.614Z">
</path>
</g>
</svg>
