<svg xmlns="http://www.w3.org/2000/svg" xmlns:xlink="http://www.w3.org/1999/xlink" width="105" height="105" viewBox="0 0 105 105" fill="none">
<g  clip-path="url(#clip-path-AcHGS2rdjWXPp221dDxZN)">
<path   fill-rule="evenodd"  fill="url(#linear_fill_3_1669_0)"  d="M82.7757 33.23L53.2257 17.68C53.0022 17.5623 52.7483 17.5 52.4957 17.5C52.2431 17.5 51.9992 17.5623 51.7757 17.68L22.2157 33.23C21.9406 33.3787 21.7192 33.6121 21.5757 33.89L52.4957 50.17L83.4157 33.89C83.273 33.6112 83.0514 33.3787 82.7757 33.23M52.4957 50.17L52.4957 87.5C52.7483 87.5 53.0022 87.4376 53.2257 87.32L82.7757 71.77C83.0265 71.638 83.2393 71.4326 83.3857 71.19C83.5321 70.9474 83.6057 70.6734 83.6057 70.39L83.6057 34.61C83.6057 34.3581 83.5367 34.111 83.4157 33.89L52.4957 50.17M21.3857 34.61L21.3857 70.39C21.3857 70.6734 21.4593 70.9474 21.6057 71.19C21.7521 71.4326 21.965 71.638 22.2157 71.77L51.7757 87.32C51.9993 87.4376 52.2432 87.5 52.4957 87.5L52.4957 50.17L21.5757 33.89C21.4554 34.1118 21.3857 34.3577 21.3857 34.61">
</path>
<g filter="url(#filter_3_1670)">
<path     fill="url(#linear_fill_3_1670_0)" fill-opacity="0.20000000298023224" d="M97.9167 23.6L53.5867 0.27C53.2515 0.0934354 52.8756 0 52.4967 0C52.1178 0 51.7519 0.0934354 51.4167 0.27L7.0767 23.6C6.66403 23.8231 6.33187 24.1631 6.1167 24.58L52.4967 49L98.8867 24.59C98.6726 24.1717 98.3302 23.823 97.9167 23.6">
</path>
<path fill-rule="evenodd"  fill="url(#linear_border_3_1670_0)"  d="M53.5867 0.27L97.9167 23.6C98.0272 23.6596 98.1326 23.7281 98.2318 23.8046C98.4904 24.0039 98.7072 24.2568 98.8627 24.5444C98.8709 24.5595 98.8789 24.5747 98.8867 24.59L52.4967 49L6.1167 24.58C6.12261 24.5685 6.12862 24.5571 6.13471 24.5458C6.29293 24.2511 6.51031 23.9963 6.77354 23.7957C6.8688 23.7231 6.97006 23.6577 7.0767 23.6L51.4167 0.27C51.7519 0.0934354 52.1178 0 52.4967 0C52.8756 0 53.2515 0.0934354 53.5867 0.27ZM7.81252 24.3427L52.4968 47.8699L97.195 24.3502L53.121 1.15493L53.1207 1.15478Q52.8268 1 52.4967 1Q52.1766 1 51.8823 1.15497L7.81252 24.3427Z">
</path>
</g>
<g filter="url(#filter_3_1671)">
<path     fill="url(#linear_fill_3_1671_0)" fill-opacity="0.20000000298023224" d="M52.5005 104.996C52.8793 104.996 53.2552 104.902 53.5905 104.726L97.9205 81.3959C98.2966 81.1978 98.6109 80.8998 98.8305 80.5359C99.0501 80.172 99.1705 79.7609 99.1705 79.3359L99.1705 25.6659C99.1705 25.288 99.0619 24.9173 98.8805 24.5859L52.5005 48.9959L52.5005 104.996">
</path>
<path fill-rule="evenodd"  fill="url(#linear_border_3_1671_0)"  d="M97.4548 80.5109L53.5005 103.643L53.5005 49.5996L98.1705 26.0896L98.1705 79.3359Q98.1705 79.6941 97.9743 80.0192Q97.7814 80.3389 97.4548 80.5109ZM98.9195 24.6601C98.9069 24.6351 98.8939 24.6104 98.8805 24.5859L52.5005 48.9959L52.5005 104.996C52.8458 104.996 53.1886 104.918 53.5005 104.771C53.5308 104.756 53.5608 104.741 53.5905 104.726L97.9205 81.3959C98.2966 81.1978 98.6109 80.8998 98.8305 80.5359C99.0501 80.172 99.1705 79.7609 99.1705 79.3359L99.1705 25.6659C99.1705 25.6321 99.1696 25.5983 99.1679 25.5647C99.1519 25.2499 99.0621 24.9421 98.9195 24.6601Z">
</path>
</g>
<g filter="url(#filter_3_1672)">
<path     fill="url(#linear_fill_3_1672_0)" fill-opacity="0.20000000298023224" d="M5.83398 25.6637L5.83398 79.3337C5.83398 79.7588 5.9544 80.1798 6.17398 80.5437C6.39357 80.9077 6.70791 81.1957 7.08398 81.3937L51.414 104.734C51.7493 104.91 52.1251 105.004 52.504 105.004L52.504 49.0037L6.11398 24.5837C5.93346 24.9164 5.83398 25.2853 5.83398 25.6637">
</path>
<path fill-rule="evenodd"  fill="url(#linear_border_3_1672_0)"  d="M7.03019 80.0271Q6.83398 79.7019 6.83398 79.3337L6.83398 26.0928L51.504 49.6074L51.504 103.651L7.54986 80.5089Q7.21424 80.3321 7.03019 80.0271ZM52.504 104.004L52.504 105.004C52.1587 105.004 51.8159 104.926 51.504 104.779C51.4737 104.764 51.4437 104.749 51.414 104.734L7.08398 81.3937C6.70791 81.1957 6.39357 80.9077 6.17398 80.5437C5.9544 80.1798 5.83398 79.7588 5.83398 79.3337L5.83398 25.6637C5.83398 25.6316 5.8347 25.5995 5.83612 25.5676C5.85056 25.2433 5.93758 24.9277 6.08543 24.638C6.09471 24.6198 6.10423 24.6017 6.11398 24.5837L52.504 49.0037L52.504 104.004Z">
</path>
</g>
</g>
<defs>
<clipPath id="clip-path-AcHGS2rdjWXPp221dDxZN">
<path d="M0 105L105 105L105 0L0 0L0 105Z" fill="white"/>
</clipPath>
<linearGradient id="linear_fill_3_1669_0" x1="21.3857421875" y1="17.5" x2="83.59814453125" y2="87.5" gradientUnits="userSpaceOnUse">
<stop offset="0" stop-color="#D8FF18"  />
<stop offset="0.7031" stop-color="#E9FF7A"  />
</linearGradient>
<linearGradient id="linear_fill_3_1670_0" x1="6.11669921875" y1="0" x2="98.86669921875" y2="49" gradientUnits="userSpaceOnUse">
<stop offset="0" stop-color="#D8FF18"  />
<stop offset="0.4531" stop-color="#FFFFFF"  />
</linearGradient>
<linearGradient id="linear_border_3_1670_0" x1="9.01513671875" y1="2.227294921875" x2="98.86669921875" y2="2.227294921875" gradientUnits="userSpaceOnUse">
<stop offset="0.0069" stop-color="#D8FF18"  />
<stop offset="0.6563" stop-color="#D8FF18"  />
</linearGradient>
<filter id="filter_3_1670" x="6.11669921875" y="0" width="92.77001953125" height="49" filterUnits="userSpaceOnUse" color-interpolation-filters="sRGB">
<feFlood flood-opacity="0" result="feFloodId_3_1670"/>
<feGaussianBlur in="feFloodId_3_1670" stdDeviation_bg="6" type="BackgroundImage" />
<feComposite in2="SourceAlpha" operator="in" result="background_Blur_3_1670"/>
<feBlend mode="normal" in="SourceGraphic" in2="background_Blur_3_1670" result="shape_3_1670"/>
<feBlend mode="normal" in="SourceGraphic" in2="feFloodId_3_1670" result="shape_3_1670"/>
<feColorMatrix in="SourceAlpha" type="matrix" values="0 0 0 0 0 0 0 0 0 0 0 0 0 0 0 0 0 0 127 0" result="hardAlpha_3_1670"/>
<feOffset dx="0" dy="2"/>
<feGaussianBlur stdDeviation="4"/>
<feComposite in2="hardAlpha_3_1670" operator="arithmetic" k2="-1" k3="1"/>
<feColorMatrix type="matrix" values="0 0 0 0 1 0 0 0 0 1 0 0 0 0 1 0 0 0 0.4 0"/>
<feBlend mode="normal" in2="shape_3_1670" result="innerShadow_0_3_1670" />
</filter>
<linearGradient id="linear_fill_3_1671_0" x1="52.50048828125" y1="24.58587646484375" x2="99.181640625" y2="104.99835205078125" gradientUnits="userSpaceOnUse">
<stop offset="0" stop-color="#D8FF18"  />
<stop offset="0.4531" stop-color="#FFFFFF"  />
</linearGradient>
<linearGradient id="linear_border_3_1671_0" x1="53.95947265625" y1="28.240966796875" x2="99.181640625" y2="28.240966796875" gradientUnits="userSpaceOnUse">
<stop offset="0.0069" stop-color="#D8FF18"  />
<stop offset="0.6563" stop-color="#D8FF18"  />
</linearGradient>
<filter id="filter_3_1671" x="52.50048828125" y="24.58587646484375" width="46.669921875" height="80.40997314453125" filterUnits="userSpaceOnUse" color-interpolation-filters="sRGB">
<feFlood flood-opacity="0" result="feFloodId_3_1671"/>
<feGaussianBlur in="feFloodId_3_1671" stdDeviation_bg="6" type="BackgroundImage" />
<feComposite in2="SourceAlpha" operator="in" result="background_Blur_3_1671"/>
<feBlend mode="normal" in="SourceGraphic" in2="background_Blur_3_1671" result="shape_3_1671"/>
<feBlend mode="normal" in="SourceGraphic" in2="feFloodId_3_1671" result="shape_3_1671"/>
<feColorMatrix in="SourceAlpha" type="matrix" values="0 0 0 0 0 0 0 0 0 0 0 0 0 0 0 0 0 0 127 0" result="hardAlpha_3_1671"/>
<feOffset dx="0" dy="2"/>
<feGaussianBlur stdDeviation="4"/>
<feComposite in2="hardAlpha_3_1671" operator="arithmetic" k2="-1" k3="1"/>
<feColorMatrix type="matrix" values="0 0 0 0 1 0 0 0 0 1 0 0 0 0 1 0 0 0 0.4 0"/>
<feBlend mode="normal" in2="shape_3_1671" result="innerShadow_0_3_1671" />
</filter>
<linearGradient id="linear_fill_3_1672_0" x1="5.833984375" y1="24.583740234375" x2="52.51513671875" y2="104.9962158203125" gradientUnits="userSpaceOnUse">
<stop offset="0" stop-color="#D8FF18"  />
<stop offset="0.4531" stop-color="#FFFFFF"  />
</linearGradient>
<linearGradient id="linear_border_3_1672_0" x1="7.29296875" y1="28.23883056640625" x2="52.51513671875" y2="28.23883056640625" gradientUnits="userSpaceOnUse">
<stop offset="0.0069" stop-color="#D8FF18"  />
<stop offset="0.6563" stop-color="#D8FF18"  />
</linearGradient>
<filter id="filter_3_1672" x="5.833984375" y="24.583740234375" width="46.669921875" height="80.41998291015625" filterUnits="userSpaceOnUse" color-interpolation-filters="sRGB">
<feFlood flood-opacity="0" result="feFloodId_3_1672"/>
<feGaussianBlur in="feFloodId_3_1672" stdDeviation_bg="6" type="BackgroundImage" />
<feComposite in2="SourceAlpha" operator="in" result="background_Blur_3_1672"/>
<feBlend mode="normal" in="SourceGraphic" in2="background_Blur_3_1672" result="shape_3_1672"/>
<feBlend mode="normal" in="SourceGraphic" in2="feFloodId_3_1672" result="shape_3_1672"/>
<feColorMatrix in="SourceAlpha" type="matrix" values="0 0 0 0 0 0 0 0 0 0 0 0 0 0 0 0 0 0 127 0" result="hardAlpha_3_1672"/>
<feOffset dx="0" dy="2"/>
<feGaussianBlur stdDeviation="4"/>
<feComposite in2="hardAlpha_3_1672" operator="arithmetic" k2="-1" k3="1"/>
<feColorMatrix type="matrix" values="0 0 0 0 1 0 0 0 0 1 0 0 0 0 1 0 0 0 0.4 0"/>
<feBlend mode="normal" in2="shape_3_1672" result="innerShadow_0_3_1672" />
</filter>
</defs>
</svg>
