<svg xmlns="http://www.w3.org/2000/svg" xmlns:xlink="http://www.w3.org/1999/xlink" width="105" height="105" viewBox="0 0 105 105" fill="none">
<g  clip-path="url(#clip-path-IgXM6GaK5dgBtlcJDbR0j)">
<g filter="url(#filter_3_1645)">
<path d="M90.1418 71.0553L57.1559 52.5L90.1418 33.9447C90.6466 33.6366 91.0122 33.1447 91.1615 32.5725C91.3107 32.0003 91.2321 31.3924 90.9422 30.877C90.6522 30.3616 90.1736 29.9789 89.607 29.8094C89.0405 29.6399 88.4302 29.6969 87.9049 29.9684L54.7842 48.599L54.7842 11.413C54.7842 10.8077 54.5437 10.2271 54.1157 9.79899C53.6876 9.37092 53.107 9.13043 52.5016 9.13043C51.8962 9.13043 51.3156 9.37092 50.8876 9.79899C50.4595 10.2271 50.219 10.8077 50.219 11.413L50.219 48.599L17.0984 29.9684C16.573 29.6969 15.9628 29.6399 15.3962 29.8094C14.8297 29.9789 14.351 30.3616 14.0611 30.877C13.7711 31.3924 13.6925 32.0003 13.8418 32.5725C13.9911 33.1447 14.3566 33.6366 14.8614 33.9447L47.8474 52.5L14.8614 71.0553C14.4223 71.303 14.0775 71.6891 13.8809 72.1534C13.6843 72.6177 13.6469 73.134 13.7747 73.6218C13.9024 74.1095 14.188 74.5412 14.587 74.8496C14.9859 75.1579 15.4757 75.3254 15.9799 75.3261C16.3712 75.3266 16.7559 75.2252 17.0961 75.0316L50.219 56.401L50.219 93.587C50.219 94.1923 50.4595 94.7729 50.8876 95.201C51.3156 95.6291 51.8962 95.8696 52.5016 95.8696C53.107 95.8696 53.6876 95.6291 54.1157 95.201C54.5437 94.7729 54.7842 94.1923 54.7842 93.587L54.7842 56.401L87.9049 75.0316C88.2457 75.2255 88.6312 75.327 89.0234 75.3261C89.5277 75.3259 90.0179 75.1587 90.4172 74.8506C90.8165 74.5425 91.1025 74.1107 91.2306 73.6229C91.3586 73.135 91.3214 72.6185 91.1249 72.154C90.9283 71.6895 90.5812 71.3031 90.1418 71.0553Z"   fill="url(#linear_fill_3_1645)" >
</path>
</g>
<g filter="url(#filter_3_1646)">
<path     fill="url(#linear_fill_3_1646_0)" fill-opacity="0.20000000298023224" d="M60.5669 60.567C62.7065 58.4274 63.9169 55.5228 63.9169 52.497C63.9169 50.2397 63.241 48.0338 61.9869 46.157C60.7328 44.2801 58.9524 42.8208 56.8669 41.957C54.7815 41.0931 52.4908 40.8666 50.2769 41.307C48.063 41.7473 46.0231 42.8308 44.4269 44.427C42.8308 46.0231 41.7473 48.0631 41.3069 50.277C40.8665 52.4909 41.0931 54.7815 41.9569 56.867C42.8207 58.9524 44.28 60.7329 46.1569 61.987C48.0338 63.2411 50.2396 63.917 52.4969 63.917C55.5227 63.917 58.4273 62.7066 60.5669 60.567">
</path>
<path fill-rule="evenodd"  fill="url(#linear_border_3_1646_0)"  d="M63.9169 52.497C63.9169 55.5228 62.7065 58.4274 60.5669 60.567C58.4273 62.7066 55.5227 63.917 52.4969 63.917C50.2396 63.917 48.0338 63.2411 46.1569 61.987C44.28 60.7329 42.8207 58.9524 41.9569 56.867C41.0931 54.7815 40.8665 52.4909 41.3069 50.277C41.7473 48.0631 42.8308 46.0231 44.4269 44.427C46.0231 42.8308 48.063 41.7473 50.2769 41.307C52.4908 40.8666 54.7815 41.0931 56.8669 41.957C58.9524 42.8208 60.7328 44.2801 61.9869 46.157C63.241 48.0338 63.9169 50.2397 63.9169 52.497ZM62.4657 49.476Q62.9169 50.9558 62.9169 52.497Q62.9169 54.5648 62.1208 56.4806Q61.3257 58.3939 59.8598 59.8599Q58.3939 61.3258 56.4805 62.1209Q54.5647 62.917 52.4969 62.917Q50.9557 62.917 49.4759 62.4657Q47.9997 62.0156 46.7125 61.1555Q45.4288 60.2978 44.4502 59.1046Q43.4722 57.9121 42.8808 56.4843Q42.2895 55.0568 42.138 53.5219Q41.9865 51.9865 42.2877 50.4721Q42.5897 48.9539 43.3161 47.5905Q44.0441 46.224 45.134 45.1341Q46.224 44.0441 47.5904 43.3161Q48.9539 42.5897 50.472 42.2878Q51.9865 41.9865 53.5219 42.1381Q55.0567 42.2896 56.4842 42.8809Q57.912 43.4723 59.1045 44.4503Q60.2977 45.4289 61.1554 46.7125Q62.0155 47.9997 62.4657 49.476Z">
</path>
</g>
<g filter="url(#filter_3_1647)">
<path     fill="url(#linear_fill_3_1647_0)" fill-opacity="0.20000000298023224" d="M89.0184 20.5435C82.7151 20.5435 77.6084 25.6502 77.6084 31.9535C77.6084 38.2567 82.7151 43.3735 89.0184 43.3735C95.3216 43.3735 100.438 38.2567 100.438 31.9535C100.438 25.6502 95.3216 20.5435 89.0184 20.5435">
</path>
<path fill-rule="evenodd"  fill="url(#linear_border_3_1647_0)"  d="M78.6084 31.9535C78.6084 26.2042 83.2691 21.5435 89.0184 21.5435C94.7732 21.5435 99.4384 26.1987 99.4384 31.9535C99.4384 37.7083 94.7732 42.3735 89.0184 42.3735C83.2691 42.3735 78.6084 37.7027 78.6084 31.9535ZM77.6084 31.9535C77.6084 25.6502 82.7151 20.5435 89.0184 20.5435C95.3216 20.5435 100.438 25.6502 100.438 31.9535C100.438 38.2567 95.3216 43.3735 89.0184 43.3735C82.7151 43.3735 77.6084 38.2567 77.6084 31.9535Z">
</path>
</g>
<g filter="url(#filter_3_1648)">
<path d="M89.0219 75.3261C88.4165 75.3261 87.8359 75.0856 87.4078 74.6575C86.9797 74.2294 86.7393 73.6488 86.7393 73.0435L86.7393 31.9565C86.7393 31.3511 86.9797 30.7705 87.4078 30.3425C87.8359 29.9144 88.4165 29.6739 89.0219 29.6739C89.6273 29.6739 90.2078 29.9144 90.6359 30.3425C91.064 30.7705 91.3045 31.3511 91.3045 31.9565L91.3045 73.0435C91.3045 73.6488 91.064 74.2294 90.6359 74.6575C90.2078 75.0856 89.6273 75.3261 89.0219 75.3261Z"   fill="url(#linear_fill_3_1648)" >
</path>
</g>
<g filter="url(#filter_3_1649)">
<path     fill="url(#linear_fill_3_1649_0)" fill-opacity="0.20000000298023224" d="M89.0184 61.6304C82.7151 61.6304 77.6084 66.7372 77.6084 73.0404C77.6084 79.3437 82.7151 84.4604 89.0184 84.4604C95.3216 84.4604 100.438 79.3437 100.438 73.0404C100.438 66.7372 95.3216 61.6304 89.0184 61.6304">
</path>
<path fill-rule="evenodd"  fill="url(#linear_border_3_1649_0)"  d="M78.6084 73.0404C78.6084 67.2912 83.2691 62.6304 89.0184 62.6304C94.7732 62.6304 99.4384 67.2856 99.4384 73.0404C99.4384 78.7952 94.7732 83.4604 89.0184 83.4604C83.2691 83.4604 78.6084 78.7897 78.6084 73.0404ZM77.6084 73.0404C77.6084 66.7372 82.7151 61.6304 89.0184 61.6304C95.3216 61.6304 100.438 66.7372 100.438 73.0404C100.438 79.3437 95.3216 84.4604 89.0184 84.4604C82.7151 84.4604 77.6084 79.3437 77.6084 73.0404Z">
</path>
</g>
<g filter="url(#filter_3_1650)">
<path d="M52.4992 95.87C51.9949 95.8699 51.5047 95.7027 51.1054 95.3945C50.7061 95.0864 50.4201 94.6547 50.292 94.1668C50.164 93.6789 50.2012 93.1624 50.3977 92.6979C50.5943 92.2334 50.9392 91.8471 51.3785 91.5993L87.9002 71.0558C88.4256 70.7843 89.0358 70.7273 89.6024 70.8968C90.1689 71.0663 90.6476 71.4491 90.9375 71.9645C91.2275 72.4799 91.3061 73.0877 91.1568 73.6599C91.0075 74.2321 90.642 74.724 90.1372 75.0321L53.6154 95.5756C53.2753 95.7691 52.8906 95.8706 52.4992 95.87Z"   fill="url(#linear_fill_3_1650)" >
</path>
</g>
<g filter="url(#filter_3_1651)">
<path     fill="url(#linear_fill_3_1651_0)" fill-opacity="0.20000000298023224" d="M52.4969 82.1739C46.1937 82.1739 41.0869 87.2806 41.0869 93.5839C41.0869 99.8871 46.1937 105.004 52.4969 105.004C58.8002 105.004 63.9169 99.8871 63.9169 93.5839C63.9169 87.2806 58.8002 82.1739 52.4969 82.1739">
</path>
<path fill-rule="evenodd"  fill="url(#linear_border_3_1651_0)"  d="M42.0869 93.5839C42.0869 87.8346 46.7476 83.1739 52.4969 83.1739C58.2517 83.1739 62.9169 87.8291 62.9169 93.5839C62.9169 99.3387 58.2517 104.004 52.4969 104.004C46.7476 104.004 42.0869 99.3332 42.0869 93.5839ZM41.0869 93.5839C41.0869 87.2806 46.1937 82.1739 52.4969 82.1739C58.8002 82.1739 63.9169 87.2806 63.9169 93.5839C63.9169 99.8871 58.8002 105.004 52.4969 105.004C46.1937 105.004 41.0869 99.8871 41.0869 93.5839Z">
</path>
</g>
<g filter="url(#filter_3_1652)">
<path d="M52.4986 95.87C52.1072 95.8706 51.7225 95.7691 51.3824 95.5756L14.8606 75.0321C14.3558 74.724 13.9903 74.2321 13.841 73.6599C13.6917 73.0877 13.7703 72.4799 14.0603 71.9645C14.3502 71.4491 14.8289 71.0663 15.3955 70.8968C15.962 70.7273 16.5722 70.7843 17.0976 71.0558L53.6193 91.5993C54.0586 91.8471 54.4035 92.2334 54.6001 92.6979C54.7966 93.1624 54.8338 93.6789 54.7058 94.1668C54.5777 94.6547 54.2917 95.0864 53.8924 95.3945C53.4931 95.7027 53.003 95.8699 52.4986 95.87Z"   fill="url(#linear_fill_3_1652)" >
</path>
</g>
<g filter="url(#filter_3_1653)">
<path     fill="url(#linear_fill_3_1653_0)" fill-opacity="0.20000000298023224" d="M15.9749 61.6304C9.67169 61.6304 4.56494 66.7372 4.56494 73.0404C4.56494 79.3437 9.67169 84.4604 15.9749 84.4604C22.2782 84.4604 27.3949 79.3437 27.3949 73.0404C27.3949 66.7372 22.2782 61.6304 15.9749 61.6304">
</path>
<path fill-rule="evenodd"  fill="url(#linear_border_3_1653_0)"  d="M5.56494 73.0404C5.56494 67.2912 10.2257 62.6304 15.9749 62.6304C21.7297 62.6304 26.3949 67.2856 26.3949 73.0404C26.3949 78.7952 21.7297 83.4604 15.9749 83.4604C10.2257 83.4604 5.56494 78.7897 5.56494 73.0404ZM4.56494 73.0404C4.56494 66.7372 9.67169 61.6304 15.9749 61.6304C22.2782 61.6304 27.3949 66.7372 27.3949 73.0404C27.3949 79.3437 22.2782 84.4604 15.9749 84.4604C9.67169 84.4604 4.56494 79.3437 4.56494 73.0404Z">
</path>
</g>
<g filter="url(#filter_3_1654)">
<path d="M15.9784 75.3261C15.373 75.3261 14.7924 75.0856 14.3644 74.6575C13.9363 74.2294 13.6958 73.6488 13.6958 73.0435L13.6958 31.9565C13.6958 31.3511 13.9363 30.7705 14.3644 30.3425C14.7924 29.9144 15.373 29.6739 15.9784 29.6739C16.5838 29.6739 17.1644 29.9144 17.5925 30.3425C18.0205 30.7705 18.261 31.3511 18.261 31.9565L18.261 73.0435C18.261 73.6488 18.0205 74.2294 17.5925 74.6575C17.1644 75.0856 16.5838 75.3261 15.9784 75.3261Z"   fill="url(#linear_fill_3_1654)" >
</path>
</g>
<g filter="url(#filter_3_1655)">
<path     fill="url(#linear_fill_3_1655_0)" fill-opacity="0.20000000298023224" d="M15.9749 20.5435C9.67169 20.5435 4.56494 25.6502 4.56494 31.9535C4.56494 38.2567 9.67169 43.3735 15.9749 43.3735C22.2782 43.3735 27.3949 38.2567 27.3949 31.9535C27.3949 25.6502 22.2782 20.5435 15.9749 20.5435">
</path>
<path fill-rule="evenodd"  fill="url(#linear_border_3_1655_0)"  d="M5.56494 31.9535C5.56494 26.2042 10.2257 21.5435 15.9749 21.5435C21.7297 21.5435 26.3949 26.1987 26.3949 31.9535C26.3949 37.7083 21.7297 42.3735 15.9749 42.3735C10.2257 42.3735 5.56494 37.7027 5.56494 31.9535ZM4.56494 31.9535C4.56494 25.6502 9.67169 20.5435 15.9749 20.5435C22.2782 20.5435 27.3949 25.6502 27.3949 31.9535C27.3949 38.2567 22.2782 43.3735 15.9749 43.3735C9.67169 43.3735 4.56494 38.2567 4.56494 31.9535Z">
</path>
</g>
<g filter="url(#filter_3_1656)">
<path d="M15.9778 34.2387C15.4734 34.2386 14.9832 34.0714 14.5839 33.7633C14.1846 33.4551 13.8986 33.0234 13.7706 32.5355C13.6425 32.0477 13.6797 31.5311 13.8763 31.0666C14.0728 30.6021 14.4177 30.2158 14.857 29.968L51.3787 9.4245C51.6404 9.2648 51.9316 9.15945 52.2349 9.11474C52.5382 9.07003 52.8474 9.08687 53.1441 9.16426C53.4407 9.24166 53.7187 9.37802 53.9615 9.5652C54.2043 9.75239 54.4069 9.98656 54.5572 10.2538C54.7075 10.521 54.8025 10.8157 54.8364 11.1204C54.8703 11.4251 54.8425 11.7335 54.7547 12.0272C54.6668 12.3209 54.5206 12.5939 54.325 12.8299C54.1293 13.0659 53.8881 13.2601 53.6157 13.4008L17.094 33.9443C16.7538 34.1378 16.3691 34.2393 15.9778 34.2387Z"   fill="url(#linear_fill_3_1656)" >
</path>
</g>
<g filter="url(#filter_3_1657)">
<path     fill="url(#linear_fill_3_1657_0)" fill-opacity="0.20000000298023224" d="M52.4969 0C46.1937 0 41.0869 5.10675 41.0869 11.41C41.0869 17.7132 46.1937 22.83 52.4969 22.83C58.8002 22.83 63.9169 17.7132 63.9169 11.41C63.9169 5.10675 58.8002 0 52.4969 0">
</path>
<path fill-rule="evenodd"  fill="url(#linear_border_3_1657_0)"  d="M42.0869 11.41C42.0869 5.66072 46.7476 1 52.4969 1C58.2517 1 62.9169 5.65519 62.9169 11.41C62.9169 17.1648 58.2517 21.83 52.4969 21.83C46.7476 21.83 42.0869 17.1593 42.0869 11.41ZM41.0869 11.41C41.0869 5.10675 46.1937 0 52.4969 0C58.8002 0 63.9169 5.10675 63.9169 11.41C63.9169 17.7132 58.8002 22.83 52.4969 22.83C46.1937 22.83 41.0869 17.7132 41.0869 11.41Z">
</path>
</g>
<g filter="url(#filter_3_1658)">
<path d="M80.4374 24.511L53.6191 9.42528C53.0937 9.1538 52.4835 9.09681 51.9169 9.2663C51.3504 9.4358 50.8717 9.81856 50.5818 10.334C50.2918 10.8494 50.2132 11.4572 50.3625 12.0294C50.5118 12.6016 50.8773 13.0935 51.3821 13.4016L78.2028 28.4896C78.6696 27.0254 79.43 25.6716 80.4374 24.511Z"   fill="url(#linear_fill_3_1658)" >
</path>
</g>
</g>
<defs>
<clipPath id="clip-path-IgXM6GaK5dgBtlcJDbR0j">
<path d="M0 105L105 105L105 0L0 0L0 105Z" fill="white"/>
</clipPath>
<linearGradient id="linear_fill_3_1645" x1="13.7001953125" y1="9.13043212890625" x2="91.3125" y2="95.88665771484375" gradientUnits="userSpaceOnUse">
<stop offset="0" stop-color="#D8FF18"  />
<stop offset="0.7031" stop-color="#EEFF9C"  />
</linearGradient>
<filter id="filter_3_1645" x="13.69677734375" y="9.13043212890625" width="77.60693359375" height="86.739990234375" filterUnits="userSpaceOnUse" color-interpolation-filters="sRGB">
<feFlood flood-opacity="0" result="feFloodId_3_1645"/>
<feBlend mode="normal" in="SourceGraphic" in2="feFloodId_3_1645" result="shape_3_1645"/>
<feColorMatrix in="SourceAlpha" type="matrix" values="0 0 0 0 0 0 0 0 0 0 0 0 0 0 0 0 0 0 127 0" result="hardAlpha_3_1645"/>
<feOffset dx="0" dy="2"/>
<feGaussianBlur stdDeviation="1"/>
<feComposite in2="hardAlpha_3_1645" operator="arithmetic" k2="-1" k3="1"/>
<feColorMatrix type="matrix" values="0 0 0 0 1 0 0 0 0 1 0 0 0 0 1 0 0 0 0.4 0"/>
<feBlend mode="normal" in2="shape_3_1645" result="innerShadow_0_3_1645" />
</filter>
<linearGradient id="linear_fill_3_1646_0" x1="41.0869140625" y1="41.08697509765625" x2="63.92431640625" y2="63.92449951171875" gradientUnits="userSpaceOnUse">
<stop offset="0" stop-color="#D8FF18"  />
<stop offset="0.4531" stop-color="#A7FF85"  />
</linearGradient>
<linearGradient id="linear_border_3_1646_0" x1="41.80078125" y1="42.12506103515625" x2="63.92431640625" y2="42.12506103515625" gradientUnits="userSpaceOnUse">
<stop offset="0" stop-color="#3CDEB6"  />
<stop offset="0.65625" stop-color="#D8FF18"  />
</linearGradient>
<filter id="filter_3_1646" x="41.087890625" y="41.0877685546875" width="22.8291015625" height="22.8292236328125" filterUnits="userSpaceOnUse" color-interpolation-filters="sRGB">
<feFlood flood-opacity="0" result="feFloodId_3_1646"/>
<feGaussianBlur in="feFloodId_3_1646" stdDeviation_bg="6" type="BackgroundImage" />
<feComposite in2="SourceAlpha" operator="in" result="background_Blur_3_1646"/>
<feBlend mode="normal" in="SourceGraphic" in2="background_Blur_3_1646" result="shape_3_1646"/>
<feBlend mode="normal" in="SourceGraphic" in2="feFloodId_3_1646" result="shape_3_1646"/>
<feColorMatrix in="SourceAlpha" type="matrix" values="0 0 0 0 0 0 0 0 0 0 0 0 0 0 0 0 0 0 127 0" result="hardAlpha_3_1646"/>
<feOffset dx="0" dy="2"/>
<feGaussianBlur stdDeviation="4"/>
<feComposite in2="hardAlpha_3_1646" operator="arithmetic" k2="-1" k3="1"/>
<feColorMatrix type="matrix" values="0 0 0 0 1 0 0 0 0 1 0 0 0 0 1 0 0 0 0.4 0"/>
<feBlend mode="normal" in2="shape_3_1646" result="innerShadow_0_3_1646" />
</filter>
<linearGradient id="linear_fill_3_1647_0" x1="77.6083984375" y1="20.54345703125" x2="100.44580078125" y2="43.3809814453125" gradientUnits="userSpaceOnUse">
<stop offset="0" stop-color="#D8FF18"  />
<stop offset="0.4531" stop-color="#A7FF85"  />
</linearGradient>
<linearGradient id="linear_border_3_1647_0" x1="78.322265625" y1="21.58154296875" x2="100.44580078125" y2="21.58154296875" gradientUnits="userSpaceOnUse">
<stop offset="0" stop-color="#3CDEB6"  />
<stop offset="0.65625" stop-color="#D8FF18"  />
</linearGradient>
<filter id="filter_3_1647" x="77.6083984375" y="20.54345703125" width="22.830078125" height="22.83001708984375" filterUnits="userSpaceOnUse" color-interpolation-filters="sRGB">
<feFlood flood-opacity="0" result="feFloodId_3_1647"/>
<feGaussianBlur in="feFloodId_3_1647" stdDeviation_bg="6" type="BackgroundImage" />
<feComposite in2="SourceAlpha" operator="in" result="background_Blur_3_1647"/>
<feBlend mode="normal" in="SourceGraphic" in2="background_Blur_3_1647" result="shape_3_1647"/>
<feBlend mode="normal" in="SourceGraphic" in2="feFloodId_3_1647" result="shape_3_1647"/>
<feColorMatrix in="SourceAlpha" type="matrix" values="0 0 0 0 0 0 0 0 0 0 0 0 0 0 0 0 0 0 127 0" result="hardAlpha_3_1647"/>
<feOffset dx="0" dy="2"/>
<feGaussianBlur stdDeviation="4"/>
<feComposite in2="hardAlpha_3_1647" operator="arithmetic" k2="-1" k3="1"/>
<feColorMatrix type="matrix" values="0 0 0 0 1 0 0 0 0 1 0 0 0 0 1 0 0 0 0.4 0"/>
<feBlend mode="normal" in2="shape_3_1647" result="innerShadow_0_3_1647" />
</filter>
<linearGradient id="linear_fill_3_1648" x1="86.7392578125" y1="29.67388916015625" x2="91.2890625" y2="75.30511474609375" gradientUnits="userSpaceOnUse">
<stop offset="0" stop-color="#D8FF18"  />
<stop offset="0.7031" stop-color="#EEFF9C"  />
</linearGradient>
<filter id="filter_3_1648" x="86.7392578125" y="29.67388916015625" width="4.56982421875" height="45.6500244140625" filterUnits="userSpaceOnUse" color-interpolation-filters="sRGB">
<feFlood flood-opacity="0" result="feFloodId_3_1648"/>
<feBlend mode="normal" in="SourceGraphic" in2="feFloodId_3_1648" result="shape_3_1648"/>
<feColorMatrix in="SourceAlpha" type="matrix" values="0 0 0 0 0 0 0 0 0 0 0 0 0 0 0 0 0 0 127 0" result="hardAlpha_3_1648"/>
<feOffset dx="0" dy="2"/>
<feGaussianBlur stdDeviation="1"/>
<feComposite in2="hardAlpha_3_1648" operator="arithmetic" k2="-1" k3="1"/>
<feColorMatrix type="matrix" values="0 0 0 0 1 0 0 0 0 1 0 0 0 0 1 0 0 0 0.4 0"/>
<feBlend mode="normal" in2="shape_3_1648" result="innerShadow_0_3_1648" />
</filter>
<linearGradient id="linear_fill_3_1649_0" x1="77.6083984375" y1="61.63043212890625" x2="100.44580078125" y2="84.46795654296875" gradientUnits="userSpaceOnUse">
<stop offset="0" stop-color="#D8FF18"  />
<stop offset="0.4531" stop-color="#A7FF85"  />
</linearGradient>
<linearGradient id="linear_border_3_1649_0" x1="78.322265625" y1="62.66851806640625" x2="100.44580078125" y2="62.66851806640625" gradientUnits="userSpaceOnUse">
<stop offset="0" stop-color="#3CDEB6"  />
<stop offset="0.65625" stop-color="#D8FF18"  />
</linearGradient>
<filter id="filter_3_1649" x="77.6083984375" y="61.63043212890625" width="22.830078125" height="22.83001708984375" filterUnits="userSpaceOnUse" color-interpolation-filters="sRGB">
<feFlood flood-opacity="0" result="feFloodId_3_1649"/>
<feGaussianBlur in="feFloodId_3_1649" stdDeviation_bg="6" type="BackgroundImage" />
<feComposite in2="SourceAlpha" operator="in" result="background_Blur_3_1649"/>
<feBlend mode="normal" in="SourceGraphic" in2="background_Blur_3_1649" result="shape_3_1649"/>
<feBlend mode="normal" in="SourceGraphic" in2="feFloodId_3_1649" result="shape_3_1649"/>
<feColorMatrix in="SourceAlpha" type="matrix" values="0 0 0 0 0 0 0 0 0 0 0 0 0 0 0 0 0 0 127 0" result="hardAlpha_3_1649"/>
<feOffset dx="0" dy="2"/>
<feGaussianBlur stdDeviation="4"/>
<feComposite in2="hardAlpha_3_1649" operator="arithmetic" k2="-1" k3="1"/>
<feColorMatrix type="matrix" values="0 0 0 0 1 0 0 0 0 1 0 0 0 0 1 0 0 0 0.4 0"/>
<feBlend mode="normal" in2="shape_3_1649" result="innerShadow_0_3_1649" />
</filter>
<linearGradient id="linear_fill_3_1650" x1="50.21728515625" y1="70.801025390625" x2="91.2109375" y2="95.8697509765625" gradientUnits="userSpaceOnUse">
<stop offset="0" stop-color="#D8FF18"  />
<stop offset="0.7031" stop-color="#EEFF9C"  />
</linearGradient>
<filter id="filter_3_1650" x="50.2138671875" y="70.80230712890625" width="41.01708984375" height="25.0687255859375" filterUnits="userSpaceOnUse" color-interpolation-filters="sRGB">
<feFlood flood-opacity="0" result="feFloodId_3_1650"/>
<feBlend mode="normal" in="SourceGraphic" in2="feFloodId_3_1650" result="shape_3_1650"/>
<feColorMatrix in="SourceAlpha" type="matrix" values="0 0 0 0 0 0 0 0 0 0 0 0 0 0 0 0 0 0 127 0" result="hardAlpha_3_1650"/>
<feOffset dx="0" dy="2"/>
<feGaussianBlur stdDeviation="1"/>
<feComposite in2="hardAlpha_3_1650" operator="arithmetic" k2="-1" k3="1"/>
<feColorMatrix type="matrix" values="0 0 0 0 1 0 0 0 0 1 0 0 0 0 1 0 0 0 0.4 0"/>
<feBlend mode="normal" in2="shape_3_1650" result="innerShadow_0_3_1650" />
</filter>
<linearGradient id="linear_fill_3_1651_0" x1="41.0869140625" y1="82.17388916015625" x2="63.92431640625" y2="105.01141357421875" gradientUnits="userSpaceOnUse">
<stop offset="0" stop-color="#D8FF18"  />
<stop offset="0.4531" stop-color="#A7FF85"  />
</linearGradient>
<linearGradient id="linear_border_3_1651_0" x1="41.80078125" y1="83.21197509765625" x2="63.92431640625" y2="83.21197509765625" gradientUnits="userSpaceOnUse">
<stop offset="0" stop-color="#3CDEB6"  />
<stop offset="0.65625" stop-color="#D8FF18"  />
</linearGradient>
<filter id="filter_3_1651" x="41.0869140625" y="82.17388916015625" width="22.830078125" height="22.83001708984375" filterUnits="userSpaceOnUse" color-interpolation-filters="sRGB">
<feFlood flood-opacity="0" result="feFloodId_3_1651"/>
<feGaussianBlur in="feFloodId_3_1651" stdDeviation_bg="6" type="BackgroundImage" />
<feComposite in2="SourceAlpha" operator="in" result="background_Blur_3_1651"/>
<feBlend mode="normal" in="SourceGraphic" in2="background_Blur_3_1651" result="shape_3_1651"/>
<feBlend mode="normal" in="SourceGraphic" in2="feFloodId_3_1651" result="shape_3_1651"/>
<feColorMatrix in="SourceAlpha" type="matrix" values="0 0 0 0 0 0 0 0 0 0 0 0 0 0 0 0 0 0 127 0" result="hardAlpha_3_1651"/>
<feOffset dx="0" dy="2"/>
<feGaussianBlur stdDeviation="4"/>
<feComposite in2="hardAlpha_3_1651" operator="arithmetic" k2="-1" k3="1"/>
<feColorMatrix type="matrix" values="0 0 0 0 1 0 0 0 0 1 0 0 0 0 1 0 0 0 0.4 0"/>
<feBlend mode="normal" in2="shape_3_1651" result="innerShadow_0_3_1651" />
</filter>
<linearGradient id="linear_fill_3_1652" x1="13.76708984375" y1="70.801025390625" x2="54.7607421875" y2="95.8697509765625" gradientUnits="userSpaceOnUse">
<stop offset="0" stop-color="#D8FF18"  />
<stop offset="0.7031" stop-color="#EEFF9C"  />
</linearGradient>
<filter id="filter_3_1652" x="13.76318359375" y="70.80230712890625" width="41.01708984375" height="25.0687255859375" filterUnits="userSpaceOnUse" color-interpolation-filters="sRGB">
<feFlood flood-opacity="0" result="feFloodId_3_1652"/>
<feBlend mode="normal" in="SourceGraphic" in2="feFloodId_3_1652" result="shape_3_1652"/>
<feColorMatrix in="SourceAlpha" type="matrix" values="0 0 0 0 0 0 0 0 0 0 0 0 0 0 0 0 0 0 127 0" result="hardAlpha_3_1652"/>
<feOffset dx="0" dy="2"/>
<feGaussianBlur stdDeviation="1"/>
<feComposite in2="hardAlpha_3_1652" operator="arithmetic" k2="-1" k3="1"/>
<feColorMatrix type="matrix" values="0 0 0 0 1 0 0 0 0 1 0 0 0 0 1 0 0 0 0.4 0"/>
<feBlend mode="normal" in2="shape_3_1652" result="innerShadow_0_3_1652" />
</filter>
<linearGradient id="linear_fill_3_1653_0" x1="4.56494140625" y1="61.63043212890625" x2="27.40234375" y2="84.46795654296875" gradientUnits="userSpaceOnUse">
<stop offset="0" stop-color="#D8FF18"  />
<stop offset="0.4531" stop-color="#A7FF85"  />
</linearGradient>
<linearGradient id="linear_border_3_1653_0" x1="5.27880859375" y1="62.66851806640625" x2="27.40234375" y2="62.66851806640625" gradientUnits="userSpaceOnUse">
<stop offset="0" stop-color="#3CDEB6"  />
<stop offset="0.65625" stop-color="#D8FF18"  />
</linearGradient>
<filter id="filter_3_1653" x="4.56494140625" y="61.63043212890625" width="22.830078125" height="22.83001708984375" filterUnits="userSpaceOnUse" color-interpolation-filters="sRGB">
<feFlood flood-opacity="0" result="feFloodId_3_1653"/>
<feGaussianBlur in="feFloodId_3_1653" stdDeviation_bg="6" type="BackgroundImage" />
<feComposite in2="SourceAlpha" operator="in" result="background_Blur_3_1653"/>
<feBlend mode="normal" in="SourceGraphic" in2="background_Blur_3_1653" result="shape_3_1653"/>
<feBlend mode="normal" in="SourceGraphic" in2="feFloodId_3_1653" result="shape_3_1653"/>
<feColorMatrix in="SourceAlpha" type="matrix" values="0 0 0 0 0 0 0 0 0 0 0 0 0 0 0 0 0 0 127 0" result="hardAlpha_3_1653"/>
<feOffset dx="0" dy="2"/>
<feGaussianBlur stdDeviation="4"/>
<feComposite in2="hardAlpha_3_1653" operator="arithmetic" k2="-1" k3="1"/>
<feColorMatrix type="matrix" values="0 0 0 0 1 0 0 0 0 1 0 0 0 0 1 0 0 0 0.4 0"/>
<feBlend mode="normal" in2="shape_3_1653" result="innerShadow_0_3_1653" />
</filter>
<linearGradient id="linear_fill_3_1654" x1="13.69580078125" y1="29.67388916015625" x2="18.24560546875" y2="75.30511474609375" gradientUnits="userSpaceOnUse">
<stop offset="0" stop-color="#D8FF18"  />
<stop offset="0.7031" stop-color="#EEFF9C"  />
</linearGradient>
<filter id="filter_3_1654" x="13.69580078125" y="29.67388916015625" width="4.56982421875" height="45.6500244140625" filterUnits="userSpaceOnUse" color-interpolation-filters="sRGB">
<feFlood flood-opacity="0" result="feFloodId_3_1654"/>
<feBlend mode="normal" in="SourceGraphic" in2="feFloodId_3_1654" result="shape_3_1654"/>
<feColorMatrix in="SourceAlpha" type="matrix" values="0 0 0 0 0 0 0 0 0 0 0 0 0 0 0 0 0 0 127 0" result="hardAlpha_3_1654"/>
<feOffset dx="0" dy="2"/>
<feGaussianBlur stdDeviation="1"/>
<feComposite in2="hardAlpha_3_1654" operator="arithmetic" k2="-1" k3="1"/>
<feColorMatrix type="matrix" values="0 0 0 0 1 0 0 0 0 1 0 0 0 0 1 0 0 0 0.4 0"/>
<feBlend mode="normal" in2="shape_3_1654" result="innerShadow_0_3_1654" />
</filter>
<linearGradient id="linear_fill_3_1655_0" x1="4.56494140625" y1="20.54345703125" x2="27.40234375" y2="43.3809814453125" gradientUnits="userSpaceOnUse">
<stop offset="0" stop-color="#D8FF18"  />
<stop offset="0.4531" stop-color="#A7FF85"  />
</linearGradient>
<linearGradient id="linear_border_3_1655_0" x1="5.27880859375" y1="21.58154296875" x2="27.40234375" y2="21.58154296875" gradientUnits="userSpaceOnUse">
<stop offset="0" stop-color="#3CDEB6"  />
<stop offset="0.65625" stop-color="#D8FF18"  />
</linearGradient>
<filter id="filter_3_1655" x="4.56494140625" y="20.54345703125" width="22.830078125" height="22.83001708984375" filterUnits="userSpaceOnUse" color-interpolation-filters="sRGB">
<feFlood flood-opacity="0" result="feFloodId_3_1655"/>
<feGaussianBlur in="feFloodId_3_1655" stdDeviation_bg="6" type="BackgroundImage" />
<feComposite in2="SourceAlpha" operator="in" result="background_Blur_3_1655"/>
<feBlend mode="normal" in="SourceGraphic" in2="background_Blur_3_1655" result="shape_3_1655"/>
<feBlend mode="normal" in="SourceGraphic" in2="feFloodId_3_1655" result="shape_3_1655"/>
<feColorMatrix in="SourceAlpha" type="matrix" values="0 0 0 0 0 0 0 0 0 0 0 0 0 0 0 0 0 0 127 0" result="hardAlpha_3_1655"/>
<feOffset dx="0" dy="2"/>
<feGaussianBlur stdDeviation="4"/>
<feComposite in2="hardAlpha_3_1655" operator="arithmetic" k2="-1" k3="1"/>
<feColorMatrix type="matrix" values="0 0 0 0 1 0 0 0 0 1 0 0 0 0 1 0 0 0 0.4 0"/>
<feBlend mode="normal" in2="shape_3_1655" result="innerShadow_0_3_1655" />
</filter>
<linearGradient id="linear_fill_3_1656" x1="13.69580078125" y1="9.09033203125" x2="54.86474609375" y2="34.24658203125" gradientUnits="userSpaceOnUse">
<stop offset="0" stop-color="#D8FF18"  />
<stop offset="0.7031" stop-color="#EEFF9C"  />
</linearGradient>
<filter id="filter_3_1656" x="13.6923828125" y="9.0860595703125" width="41.15771484375" height="25.154296875" filterUnits="userSpaceOnUse" color-interpolation-filters="sRGB">
<feFlood flood-opacity="0" result="feFloodId_3_1656"/>
<feBlend mode="normal" in="SourceGraphic" in2="feFloodId_3_1656" result="shape_3_1656"/>
<feColorMatrix in="SourceAlpha" type="matrix" values="0 0 0 0 0 0 0 0 0 0 0 0 0 0 0 0 0 0 127 0" result="hardAlpha_3_1656"/>
<feOffset dx="0" dy="2"/>
<feGaussianBlur stdDeviation="1"/>
<feComposite in2="hardAlpha_3_1656" operator="arithmetic" k2="-1" k3="1"/>
<feColorMatrix type="matrix" values="0 0 0 0 1 0 0 0 0 1 0 0 0 0 1 0 0 0 0.4 0"/>
<feBlend mode="normal" in2="shape_3_1656" result="innerShadow_0_3_1656" />
</filter>
<linearGradient id="linear_fill_3_1657_0" x1="41.0869140625" y1="0" x2="63.92431640625" y2="22.8375244140625" gradientUnits="userSpaceOnUse">
<stop offset="0" stop-color="#D8FF18"  />
<stop offset="0.4531" stop-color="#A7FF85"  />
</linearGradient>
<linearGradient id="linear_border_3_1657_0" x1="41.80078125" y1="1.0380859375" x2="63.92431640625" y2="1.0380859375" gradientUnits="userSpaceOnUse">
<stop offset="0" stop-color="#3CDEB6"  />
<stop offset="0.65625" stop-color="#D8FF18"  />
</linearGradient>
<filter id="filter_3_1657" x="41.0869140625" y="0" width="22.830078125" height="22.83001708984375" filterUnits="userSpaceOnUse" color-interpolation-filters="sRGB">
<feFlood flood-opacity="0" result="feFloodId_3_1657"/>
<feGaussianBlur in="feFloodId_3_1657" stdDeviation_bg="6" type="BackgroundImage" />
<feComposite in2="SourceAlpha" operator="in" result="background_Blur_3_1657"/>
<feBlend mode="normal" in="SourceGraphic" in2="background_Blur_3_1657" result="shape_3_1657"/>
<feBlend mode="normal" in="SourceGraphic" in2="feFloodId_3_1657" result="shape_3_1657"/>
<feColorMatrix in="SourceAlpha" type="matrix" values="0 0 0 0 0 0 0 0 0 0 0 0 0 0 0 0 0 0 127 0" result="hardAlpha_3_1657"/>
<feOffset dx="0" dy="2"/>
<feGaussianBlur stdDeviation="4"/>
<feComposite in2="hardAlpha_3_1657" operator="arithmetic" k2="-1" k3="1"/>
<feColorMatrix type="matrix" values="0 0 0 0 1 0 0 0 0 1 0 0 0 0 1 0 0 0 0.4 0"/>
<feBlend mode="normal" in2="shape_3_1657" result="innerShadow_0_3_1657" />
</filter>
<linearGradient id="linear_fill_3_1658" x1="50.28857421875" y1="9.1705322265625" x2="80.43212890625" y2="28.508056640625" gradientUnits="userSpaceOnUse">
<stop offset="0" stop-color="#D8FF18"  />
<stop offset="0.7031" stop-color="#EEFF9C"  />
</linearGradient>
<filter id="filter_3_1658" x="50.28466796875" y="9.17181396484375" width="30.15380859375" height="19.3187255859375" filterUnits="userSpaceOnUse" color-interpolation-filters="sRGB">
<feFlood flood-opacity="0" result="feFloodId_3_1658"/>
<feBlend mode="normal" in="SourceGraphic" in2="feFloodId_3_1658" result="shape_3_1658"/>
<feColorMatrix in="SourceAlpha" type="matrix" values="0 0 0 0 0 0 0 0 0 0 0 0 0 0 0 0 0 0 127 0" result="hardAlpha_3_1658"/>
<feOffset dx="0" dy="2"/>
<feGaussianBlur stdDeviation="1"/>
<feComposite in2="hardAlpha_3_1658" operator="arithmetic" k2="-1" k3="1"/>
<feColorMatrix type="matrix" values="0 0 0 0 1 0 0 0 0 1 0 0 0 0 1 0 0 0 0.4 0"/>
<feBlend mode="normal" in2="shape_3_1658" result="innerShadow_0_3_1658" />
</filter>
</defs>
</svg>
