<svg xmlns="http://www.w3.org/2000/svg" xmlns:xlink="http://www.w3.org/1999/xlink" width="105" height="105" viewBox="0 0 105 105" fill="none">
<g  clip-path="url(#clip-path-EgFvVNS5E2tP08YxJOuyl)">
<path d="M68.4798 34.2358C68.4798 43.0607 61.3258 50.2147 52.5009 50.2147C43.676 50.2147 36.522 43.0607 36.522 34.2358C36.522 25.4109 43.676 18.2569 52.5009 18.2569C61.3258 18.2569 68.4798 25.4109 68.4798 34.2358Z"   fill="url(#linear_fill_3_1659)" >
</path>
<path d="M61.6317 63.911C61.6317 68.9538 57.5437 73.0418 52.5009 73.0418C47.4581 73.0418 43.3701 68.9538 43.3701 63.911C43.3701 58.8682 47.4581 54.7802 52.5009 54.7802C57.5437 54.7802 61.6317 58.8682 61.6317 63.911Z"   fill="url(#linear_fill_3_1660)" >
</path>
<path d="M61.6317 95.8688C61.6317 100.912 57.5437 105 52.5009 105C47.4581 105 43.3701 100.912 43.3701 95.8688C43.3701 90.826 47.4581 86.738 52.5009 86.738C57.5437 86.738 61.6317 90.826 61.6317 95.8688Z"   fill="url(#linear_fill_3_1661)" >
</path>
<path d="M36.5219 89.0207C36.5219 94.0635 32.4339 98.1515 27.3911 98.1515C22.3483 98.1515 18.2603 94.0635 18.2603 89.0207C18.2603 83.9779 22.3483 79.8899 27.3911 79.8899C32.4339 79.8899 36.5219 83.9779 36.5219 89.0207Z"   fill="url(#linear_fill_3_1662)" >
</path>
<path d="M86.7416 89.0207C86.7416 94.0635 82.6536 98.1515 77.6108 98.1515C72.568 98.1515 68.48 94.0635 68.48 89.0207C68.48 83.9779 72.568 79.8899 77.6108 79.8899C82.6536 79.8899 86.7416 83.9779 86.7416 89.0207Z"   fill="url(#linear_fill_3_1663)" >
</path>
<g filter="url(#filter_3_1664)">
<path     fill="url(#linear_fill_3_1664_0)" fill-opacity="0.20000000298023224" d="M76.4703 58.6898C81.3274 53.9289 84.6534 47.8303 86.0303 41.1698C87.4071 34.5093 86.7715 27.5963 84.2003 21.2998C81.629 15.0033 77.2359 9.61251 71.5903 5.81979C65.9446 2.02706 59.3016 -0.000213623 52.5003 -0.000213623C45.699 -0.000213623 39.0559 2.02706 33.4103 5.81979C27.7646 9.61251 23.3715 15.0033 20.8003 21.2998C18.229 27.5963 17.5934 34.5093 18.9703 41.1698C20.3471 47.8303 23.6732 53.9289 28.5303 58.6898C28.7432 58.9046 29.0009 59.0738 29.2803 59.1898C29.5596 59.3058 29.8577 59.3698 30.1603 59.3698C30.4628 59.3698 30.7615 59.3073 31.0403 59.1898C31.319 59.0723 31.5685 58.8958 31.7803 58.6798C31.992 58.4638 32.1583 58.2108 32.2703 57.9298C32.3822 57.6488 32.4403 57.3523 32.4403 57.0498C32.4403 56.7473 32.3618 56.4468 32.2403 56.1698C32.1188 55.8927 31.9493 55.6385 31.7303 55.4298C27.5208 51.3037 24.6335 46.0222 23.4403 40.2498C22.247 34.4774 22.8018 28.4768 25.0303 23.0198C27.2587 17.5628 31.0574 12.8968 35.9503 9.60979C40.8431 6.32276 46.6058 4.56979 52.5003 4.56979C58.3947 4.56979 64.1574 6.32276 69.0503 9.60979C73.9431 12.8968 77.7418 17.5628 79.9703 23.0198C82.1987 28.4768 82.7535 34.4774 81.5603 40.2498C80.367 46.0222 77.4797 51.3037 73.2702 55.4298C72.9466 55.7472 72.732 56.1558 72.6403 56.5998C72.5485 57.0438 72.5889 57.5101 72.7603 57.9298C72.9317 58.3495 73.224 58.707 73.6003 58.9598C73.9766 59.2126 74.4169 59.3498 74.8703 59.3498C75.4678 59.3498 76.0436 59.1082 76.4703 58.6898">
</path>
<path fill-rule="evenodd"  fill="url(#linear_border_3_1664_0)"  d="M86.0303 41.1698C84.6534 47.8303 81.3274 53.9289 76.4703 58.6898C76.0436 59.1082 75.4678 59.3498 74.8703 59.3498C74.4169 59.3498 73.9766 59.2126 73.6003 58.9598C73.224 58.707 72.9317 58.3495 72.7603 57.9298C72.5889 57.5101 72.5485 57.0438 72.6403 56.5998C72.732 56.1558 72.9466 55.7472 73.2702 55.4298C77.4797 51.3037 80.367 46.0222 81.5603 40.2498C82.7535 34.4774 82.1987 28.4768 79.9703 23.0198C77.7418 17.5628 73.9431 12.8968 69.0503 9.60979C64.1574 6.32276 58.3947 4.56979 52.5003 4.56979C46.6058 4.56979 40.8431 6.32276 35.9503 9.60979C31.0574 12.8968 27.2587 17.5628 25.0303 23.0198C22.8018 28.4768 22.247 34.4774 23.4403 40.2498C24.6335 46.0222 27.5208 51.3037 31.7303 55.4298C31.9493 55.6385 32.1188 55.8927 32.2403 56.1698C32.3618 56.4468 32.4403 56.7473 32.4403 57.0498C32.4403 57.3523 32.3822 57.6488 32.2703 57.9298C32.1583 58.2108 31.992 58.4638 31.7803 58.6798C31.5685 58.8958 31.319 59.0723 31.0403 59.1898C30.7615 59.3073 30.4628 59.3698 30.1603 59.3698C29.8577 59.3698 29.5596 59.3058 29.2803 59.1898C29.0009 59.0738 28.7432 58.9046 28.5303 58.6898C23.6732 53.9289 20.3471 47.8303 18.9703 41.1698C17.5934 34.5093 18.229 27.5963 20.8003 21.2998C23.3715 15.0033 27.7646 9.61251 33.4103 5.81979C39.0559 2.02706 45.699 -0.000213623 52.5003 -0.000213623C59.3016 -0.000213623 65.9446 2.02706 71.5903 5.81979C77.2359 9.61251 81.629 15.0033 84.2003 21.2998C86.7715 27.5963 87.4071 34.5093 86.0303 41.1698ZM85.6 31.19Q86.0536 36.1171 85.051 40.9673Q84.0482 45.8178 81.6775 50.1632Q79.3059 54.51 75.7702 57.9756Q75.3887 58.3498 74.8703 58.3498Q74.4855 58.3498 74.158 58.1297Q73.8329 57.9114 73.686 57.5517Q73.539 57.1918 73.6196 56.8021Q73.701 56.408 73.9704 56.1438Q77.2348 52.944 79.4239 48.9365Q81.6147 44.926 82.5396 40.4522Q83.4645 35.9776 83.0442 31.4246Q82.6239 26.873 80.896 22.6417Q79.1682 18.4107 76.2849 14.8696Q73.4009 11.3278 69.6079 8.77971Q65.8155 6.23195 61.4421 4.9005Q57.0711 3.56979 52.5003 3.56979Q47.9294 3.56979 43.5584 4.9005Q39.185 6.23195 35.3926 8.77971Q31.5996 11.3278 28.7157 14.8696Q25.8323 18.4107 24.1045 22.6417Q22.3766 26.873 21.9563 31.4246Q21.536 35.9776 22.461 40.4522Q23.3858 44.926 25.5766 48.9365Q27.7657 52.944 31.0303 56.1439Q31.2137 56.3188 31.3245 56.5714Q31.4403 56.8355 31.4403 57.0498Q31.4403 57.3113 31.3413 57.5596Q31.2476 57.7946 31.0662 57.9797Q30.8759 58.1739 30.6517 58.2683Q30.4112 58.3698 30.1603 58.3698Q29.9132 58.3698 29.6637 58.2662Q29.4169 58.1637 29.2405 57.9858Q25.6946 54.51 23.323 50.1632Q20.9523 45.8179 19.9495 40.9673Q18.9469 36.1171 19.4005 31.19Q19.8542 26.2616 21.726 21.6779Q23.5978 17.0943 26.7277 13.2525Q29.8566 9.41187 33.9679 6.64986Q38.0795 3.88766 42.8136 2.44403Q47.5496 0.999786 52.5003 0.999786Q57.4509 0.999786 62.187 2.44403Q66.921 3.88766 71.0326 6.64986Q75.144 9.41188 78.2728 13.2525Q81.4027 17.0943 83.2745 21.6778Q85.1463 26.2616 85.6 31.19Z">
</path>
</g>
<g filter="url(#filter_3_1665)">
<path     fill="url(#linear_fill_3_1665_0)" fill-opacity="0.20000000298023224" d="M54.1183 90.6363C54.5464 90.2083 54.7883 89.6218 54.7883 89.0163L54.7883 70.7563C54.7883 70.1509 54.5464 69.5744 54.1183 69.1463C53.6902 68.7183 53.1037 68.4763 52.4983 68.4763C51.8929 68.4763 51.3164 68.7183 50.8883 69.1463C50.4602 69.5744 50.2183 70.1509 50.2183 70.7563L50.2183 89.0163C50.2183 89.6218 50.4602 90.2083 50.8883 90.6363C51.3164 91.0644 51.8929 91.3064 52.4983 91.3064C53.1037 91.3064 53.6902 91.0644 54.1183 90.6363">
</path>
<path fill-rule="evenodd"  fill="url(#linear_border_3_1665_0)"  d="M54.7883 89.0163C54.7883 89.6218 54.5464 90.2083 54.1183 90.6363C53.6902 91.0644 53.1037 91.3064 52.4983 91.3064C51.8929 91.3064 51.3164 91.0644 50.8883 90.6363C50.4602 90.2083 50.2183 89.6218 50.2183 89.0163L50.2183 70.7563C50.2183 70.1509 50.4602 69.5744 50.8883 69.1463C51.3164 68.7183 51.8929 68.4763 52.4983 68.4763C53.1037 68.4763 53.6902 68.7183 54.1183 69.1463C54.5464 69.5744 54.7883 70.1509 54.7883 70.7563L54.7883 89.0163ZM53.7883 70.7563L53.7883 89.0163Q53.7883 89.5521 53.4112 89.9292Q53.034 90.3064 52.4983 90.3064Q51.9725 90.3064 51.5954 89.9292Q51.2183 89.5521 51.2183 89.0163L51.2183 70.7563Q51.2183 70.2306 51.5954 69.8535Q51.9725 69.4763 52.4983 69.4763Q53.034 69.4763 53.4112 69.8535Q53.7883 70.2306 53.7883 70.7563Z">
</path>
</g>
<g filter="url(#filter_3_1666)">
<path     fill="url(#linear_fill_3_1666_0)" fill-opacity="0.20000000298023224" d="M29.0084 83.7871C29.4365 83.359 29.6784 82.7825 29.6784 82.1771L29.6784 74.4571L46.6684 65.9471C47.2102 65.6765 47.6266 65.2016 47.8184 64.6271C48.0102 64.0526 47.969 63.419 47.6984 62.8771C47.4278 62.3353 46.9529 61.9289 46.3784 61.7371C45.8039 61.5453 45.1702 61.5865 44.6284 61.8571L26.3684 70.9871C25.9872 71.1776 25.6715 71.474 25.4484 71.8371C25.2253 72.2002 25.1084 72.621 25.1084 73.0471L25.1084 82.1771C25.1084 82.7825 25.3503 83.359 25.7784 83.7871C26.2065 84.2152 26.783 84.4571 27.3884 84.4571C27.9938 84.4571 28.5803 84.2152 29.0084 83.7871">
</path>
<path fill-rule="evenodd"  fill="url(#linear_border_3_1666_0)"  d="M29.6784 74.4571L29.6784 82.1771C29.6784 82.7825 29.4365 83.359 29.0084 83.7871C28.5803 84.2152 27.9938 84.4571 27.3884 84.4571C26.783 84.4571 26.2065 84.2152 25.7784 83.7871C25.3503 83.359 25.1084 82.7825 25.1084 82.1771L25.1084 73.0471C25.1084 72.621 25.2253 72.2002 25.4484 71.8371C25.6715 71.474 25.9872 71.1776 26.3684 70.9871L44.6284 61.8571C45.1702 61.5865 45.8039 61.5453 46.3784 61.7371C46.9529 61.9289 47.4278 62.3353 47.6984 62.8771C47.969 63.419 48.0102 64.0526 47.8184 64.6271C47.6266 65.2016 47.2102 65.6765 46.6684 65.9471L29.6784 74.4571ZM28.6784 73.8396L28.6784 82.1771Q28.6784 82.7029 28.3013 83.08Q27.9242 83.4571 27.3884 83.4571Q26.8626 83.4571 26.4855 83.08Q26.1084 82.7029 26.1084 82.1771L26.1084 73.0471Q26.1084 72.6731 26.3004 72.3606Q26.497 72.0408 26.8154 71.8817L45.0756 62.7516Q45.5498 62.5147 46.0617 62.6857Q46.5697 62.8552 46.8038 63.3239Q47.0408 63.7985 46.8699 64.3105Q46.7023 64.8124 46.2216 65.0525L28.6784 73.8396Z">
</path>
</g>
<g filter="url(#filter_3_1667)">
<path     fill="url(#linear_fill_3_1667_0)" fill-opacity="0.20000000298023224" d="M79.2264 83.7894C79.6545 83.3613 79.8964 82.7748 79.8964 82.1694L79.8964 73.0394C79.8964 72.6171 79.7693 72.2081 79.5464 71.8494C79.3235 71.4907 79.0141 71.1982 78.6364 71.0094L60.3664 61.8794C59.8246 61.6088 59.2009 61.5676 58.6264 61.7594C58.0519 61.9512 57.577 62.3576 57.3064 62.8994C57.0358 63.4412 56.9946 64.0749 57.1864 64.6494C57.3782 65.2239 57.7846 65.6988 58.3264 65.9694L75.3264 74.4494L75.3264 82.1694C75.3264 82.7748 75.5683 83.3613 75.9964 83.7894C76.4245 84.2175 77.011 84.4594 77.6164 84.4594C78.2218 84.4594 78.7983 84.2175 79.2264 83.7894">
</path>
<path fill-rule="evenodd"  fill="url(#linear_border_3_1667_0)"  d="M75.3264 74.4494L58.3264 65.9694C57.7846 65.6988 57.3782 65.2239 57.1864 64.6494C56.9946 64.0749 57.0358 63.4412 57.3064 62.8994C57.577 62.3576 58.0519 61.9512 58.6264 61.7594C59.2009 61.5676 59.8246 61.6088 60.3664 61.8794L78.6364 71.0094C79.0141 71.1982 79.3235 71.4907 79.5464 71.8494C79.7693 72.2081 79.8964 72.6171 79.8964 73.0394L79.8964 82.1694C79.8964 82.7748 79.6545 83.3613 79.2264 83.7894C78.7983 84.2175 78.2218 84.4594 77.6164 84.4594C77.011 84.4594 76.4245 84.2175 75.9964 83.7894C75.5683 83.3613 75.3264 82.7748 75.3264 82.1694L75.3264 74.4494ZM78.8964 73.0394L78.8964 82.1694Q78.8964 82.7052 78.5193 83.0823Q78.1422 83.4594 77.6164 83.4594Q77.0806 83.4594 76.7035 83.0823Q76.3264 82.7052 76.3264 82.1694L76.3264 73.8307L58.7728 65.0746Q58.3045 64.8407 58.1349 64.3328Q57.964 63.8208 58.201 63.3462Q58.4351 62.8775 58.9431 62.7079Q59.4491 62.539 59.9196 62.774L78.1894 71.9039Q78.4991 72.0587 78.697 72.3772Q78.8964 72.6981 78.8964 73.0394Z">
</path>
</g>
</g>
<defs>
<clipPath id="clip-path-EgFvVNS5E2tP08YxJOuyl">
<path d="M0 105L105 105L105 0L0 0L0 105Z" fill="white"/>
</clipPath>
<linearGradient id="linear_fill_3_1659" x1="36.52197265625" y1="18.256927490234375" x2="68.45947265625" y2="50.194427490234375" gradientUnits="userSpaceOnUse">
<stop offset="0" stop-color="#F9FFDB"  />
<stop offset="0.703125" stop-color="#D8FF18"  />
</linearGradient>
<linearGradient id="linear_fill_3_1660" x1="43.3701171875" y1="54.7801513671875" x2="61.61376953125" y2="73.02389526367188" gradientUnits="userSpaceOnUse">
<stop offset="0" stop-color="#F9FFDB"  />
<stop offset="0.703125" stop-color="#D8FF18"  />
</linearGradient>
<linearGradient id="linear_fill_3_1661" x1="43.3701171875" y1="86.73797607421875" x2="61.61376953125" y2="104.98171997070312" gradientUnits="userSpaceOnUse">
<stop offset="0" stop-color="#F9FFDB"  />
<stop offset="0.703125" stop-color="#D8FF18"  />
</linearGradient>
<linearGradient id="linear_fill_3_1662" x1="18.26025390625" y1="79.88986206054688" x2="36.50390625" y2="98.13360595703125" gradientUnits="userSpaceOnUse">
<stop offset="0" stop-color="#F9FFDB"  />
<stop offset="0.703125" stop-color="#D8FF18"  />
</linearGradient>
<linearGradient id="linear_fill_3_1663" x1="68.47998046875" y1="79.88986206054688" x2="86.7236328125" y2="98.13360595703125" gradientUnits="userSpaceOnUse">
<stop offset="0" stop-color="#F9FFDB"  />
<stop offset="0.703125" stop-color="#D8FF18"  />
</linearGradient>
<linearGradient id="linear_fill_3_1664_0" x1="18.26025390625" y1="-0.000213623046875" x2="86.72900390625" y2="59.3685302734375" gradientUnits="userSpaceOnUse">
<stop offset="0" stop-color="#D8FF18"  />
<stop offset="0.4531" stop-color="#FEFFAB"  />
</linearGradient>
<linearGradient id="linear_border_3_1664_0" x1="20.39990234375" y1="2.6983642578125" x2="86.72900390625" y2="2.6983642578125" gradientUnits="userSpaceOnUse">
<stop offset="0" stop-color="#D8FF18"  />
<stop offset="0.6563" stop-color="#A7FF85"  />
</linearGradient>
<filter id="filter_3_1664" x="18.2607421875" y="-0.000213623046875" width="68.47900390625" height="59.3699951171875" filterUnits="userSpaceOnUse" color-interpolation-filters="sRGB">
<feFlood flood-opacity="0" result="feFloodId_3_1664"/>
<feGaussianBlur in="feFloodId_3_1664" stdDeviation_bg="6" type="BackgroundImage" />
<feComposite in2="SourceAlpha" operator="in" result="background_Blur_3_1664"/>
<feBlend mode="normal" in="SourceGraphic" in2="background_Blur_3_1664" result="shape_3_1664"/>
<feBlend mode="normal" in="SourceGraphic" in2="feFloodId_3_1664" result="shape_3_1664"/>
<feColorMatrix in="SourceAlpha" type="matrix" values="0 0 0 0 0 0 0 0 0 0 0 0 0 0 0 0 0 0 127 0" result="hardAlpha_3_1664"/>
<feOffset dx="0" dy="2"/>
<feGaussianBlur stdDeviation="4"/>
<feComposite in2="hardAlpha_3_1664" operator="arithmetic" k2="-1" k3="1"/>
<feColorMatrix type="matrix" values="0 0 0 0 1 0 0 0 0 1 0 0 0 0 1 0 0 0 0.4 0"/>
<feBlend mode="normal" in2="shape_3_1664" result="innerShadow_0_3_1664" />
</filter>
<linearGradient id="linear_fill_3_1665_0" x1="50.21826171875" y1="68.47634887695312" x2="54.76806640625" y2="91.3138427734375" gradientUnits="userSpaceOnUse">
<stop offset="0" stop-color="#D8FF18"  />
<stop offset="0.4531" stop-color="#FEFFAB"  />
</linearGradient>
<linearGradient id="linear_border_3_1665_0" x1="50.3603515625" y1="69.514404296875" x2="54.76806640625" y2="69.514404296875" gradientUnits="userSpaceOnUse">
<stop offset="0" stop-color="#D8FF18"  />
<stop offset="0.6563" stop-color="#A7FF85"  />
</linearGradient>
<filter id="filter_3_1665" x="50.21826171875" y="68.47634887695312" width="4.56982421875" height="22.829986572265625" filterUnits="userSpaceOnUse" color-interpolation-filters="sRGB">
<feFlood flood-opacity="0" result="feFloodId_3_1665"/>
<feGaussianBlur in="feFloodId_3_1665" stdDeviation_bg="6" type="BackgroundImage" />
<feComposite in2="SourceAlpha" operator="in" result="background_Blur_3_1665"/>
<feBlend mode="normal" in="SourceGraphic" in2="background_Blur_3_1665" result="shape_3_1665"/>
<feBlend mode="normal" in="SourceGraphic" in2="feFloodId_3_1665" result="shape_3_1665"/>
<feColorMatrix in="SourceAlpha" type="matrix" values="0 0 0 0 0 0 0 0 0 0 0 0 0 0 0 0 0 0 127 0" result="hardAlpha_3_1665"/>
<feOffset dx="0" dy="2"/>
<feGaussianBlur stdDeviation="4"/>
<feComposite in2="hardAlpha_3_1665" operator="arithmetic" k2="-1" k3="1"/>
<feColorMatrix type="matrix" values="0 0 0 0 1 0 0 0 0 1 0 0 0 0 1 0 0 0 0.4 0"/>
<feBlend mode="normal" in2="shape_3_1665" result="innerShadow_0_3_1665" />
</filter>
<linearGradient id="linear_fill_3_1666_0" x1="25.1083984375" y1="61.61712646484375" x2="47.94580078125" y2="84.45462036132812" gradientUnits="userSpaceOnUse">
<stop offset="0" stop-color="#D8FF18"  />
<stop offset="0.4531" stop-color="#FEFFAB"  />
</linearGradient>
<linearGradient id="linear_border_3_1666_0" x1="25.822265625" y1="62.655181884765625" x2="47.94580078125" y2="62.655181884765625" gradientUnits="userSpaceOnUse">
<stop offset="0" stop-color="#D8FF18"  />
<stop offset="0.6563" stop-color="#A7FF85"  />
</linearGradient>
<filter id="filter_3_1666" x="25.1083984375" y="61.61846923828125" width="22.82861328125" height="22.838653564453125" filterUnits="userSpaceOnUse" color-interpolation-filters="sRGB">
<feFlood flood-opacity="0" result="feFloodId_3_1666"/>
<feGaussianBlur in="feFloodId_3_1666" stdDeviation_bg="6" type="BackgroundImage" />
<feComposite in2="SourceAlpha" operator="in" result="background_Blur_3_1666"/>
<feBlend mode="normal" in="SourceGraphic" in2="background_Blur_3_1666" result="shape_3_1666"/>
<feBlend mode="normal" in="SourceGraphic" in2="feFloodId_3_1666" result="shape_3_1666"/>
<feColorMatrix in="SourceAlpha" type="matrix" values="0 0 0 0 0 0 0 0 0 0 0 0 0 0 0 0 0 0 127 0" result="hardAlpha_3_1666"/>
<feOffset dx="0" dy="2"/>
<feGaussianBlur stdDeviation="4"/>
<feComposite in2="hardAlpha_3_1666" operator="arithmetic" k2="-1" k3="1"/>
<feColorMatrix type="matrix" values="0 0 0 0 1 0 0 0 0 1 0 0 0 0 1 0 0 0 0.4 0"/>
<feBlend mode="normal" in2="shape_3_1666" result="innerShadow_0_3_1666" />
</filter>
<linearGradient id="linear_fill_3_1667_0" x1="57.06640625" y1="61.639404296875" x2="79.90380859375" y2="84.47689819335938" gradientUnits="userSpaceOnUse">
<stop offset="0" stop-color="#D8FF18"  />
<stop offset="0.4531" stop-color="#FEFFAB"  />
</linearGradient>
<linearGradient id="linear_border_3_1667_0" x1="57.7802734375" y1="62.677459716796875" x2="79.90380859375" y2="62.677459716796875" gradientUnits="userSpaceOnUse">
<stop offset="0" stop-color="#D8FF18"  />
<stop offset="0.6563" stop-color="#A7FF85"  />
</linearGradient>
<filter id="filter_3_1667" x="57.06787109375" y="61.6407470703125" width="22.82861328125" height="22.81866455078125" filterUnits="userSpaceOnUse" color-interpolation-filters="sRGB">
<feFlood flood-opacity="0" result="feFloodId_3_1667"/>
<feGaussianBlur in="feFloodId_3_1667" stdDeviation_bg="6" type="BackgroundImage" />
<feComposite in2="SourceAlpha" operator="in" result="background_Blur_3_1667"/>
<feBlend mode="normal" in="SourceGraphic" in2="background_Blur_3_1667" result="shape_3_1667"/>
<feBlend mode="normal" in="SourceGraphic" in2="feFloodId_3_1667" result="shape_3_1667"/>
<feColorMatrix in="SourceAlpha" type="matrix" values="0 0 0 0 0 0 0 0 0 0 0 0 0 0 0 0 0 0 127 0" result="hardAlpha_3_1667"/>
<feOffset dx="0" dy="2"/>
<feGaussianBlur stdDeviation="4"/>
<feComposite in2="hardAlpha_3_1667" operator="arithmetic" k2="-1" k3="1"/>
<feColorMatrix type="matrix" values="0 0 0 0 1 0 0 0 0 1 0 0 0 0 1 0 0 0 0.4 0"/>
<feBlend mode="normal" in2="shape_3_1667" result="innerShadow_0_3_1667" />
</filter>
</defs>
</svg>
