<svg xmlns="http://www.w3.org/2000/svg" xmlns:xlink="http://www.w3.org/1999/xlink" width="105" height="105" viewBox="0 0 105 105" fill="none">
<g  clip-path="url(#clip-path-TfvJ_lKCNrV7VB58fmCp9)">
<g filter="url(#filter_3_1628)">
<path   fill-rule="evenodd"  fill="url(#linear_fill_3_1628_0)"  d="M34.7196 44.2816L20.6096 35.6616C20.3328 35.4926 20.0139 35.4016 19.6896 35.4016C19.3653 35.4016 19.0464 35.4926 18.7696 35.6616L4.65957 44.2816C4.39862 44.4404 4.17666 44.6639 4.02957 44.9316L19.6896 54.5016L35.3496 44.9316C35.2025 44.6639 34.9805 44.4404 34.7196 44.2816M19.6896 54.5016L19.6896 71.8416C20.014 71.8416 20.3329 71.7509 20.6096 71.5816L34.7196 62.9616C34.9775 62.8042 35.1916 62.5851 35.3396 62.3216C35.4875 62.0581 35.5696 61.7538 35.5696 61.4516L35.5696 45.7916C35.5696 45.4922 35.4951 45.1933 35.3496 44.9316L19.6896 54.5016M3.80957 45.7916L3.80957 61.4516C3.80957 61.7538 3.8916 62.0581 4.03957 62.3216C4.18754 62.5851 4.40161 62.8042 4.65957 62.9616L18.7696 71.5816C19.0463 71.7509 19.3652 71.8416 19.6896 71.8416L19.6896 54.5016L4.02957 44.9316C3.88406 45.1933 3.80957 45.4922 3.80957 45.7916">
</path>
</g>
<g filter="url(#filter_3_1629)">
<path   fill-rule="evenodd"  fill="url(#linear_fill_3_1629_0)"  d="M34.721 44.2816L20.611 35.6616C20.3342 35.4926 20.0153 35.4016 19.691 35.4016C19.3667 35.4016 19.0478 35.4926 18.771 35.6616L4.66104 44.2816C4.40009 44.4404 4.17812 44.6639 4.03103 44.9316L19.691 54.5016L35.351 44.9316C35.2039 44.6639 34.982 44.4404 34.721 44.2816M19.691 54.5016L19.691 71.8416C20.0154 71.8416 20.3343 71.7509 20.611 71.5816L34.721 62.9616C34.979 62.8042 35.1931 62.5851 35.341 62.3216C35.489 62.0581 35.571 61.7538 35.571 61.4516L35.571 45.7916C35.571 45.4922 35.4966 45.1933 35.351 44.9316L19.691 54.5016M3.81104 45.7916L3.81104 61.4516C3.81104 61.7538 3.89306 62.0581 4.04104 62.3216C4.18901 62.5851 4.40308 62.8042 4.66104 62.9616L18.771 71.5816C19.0477 71.7509 19.3666 71.8416 19.691 71.8416L19.691 54.5016L4.03103 44.9316C3.88552 45.1933 3.81104 45.4922 3.81104 45.7916">
</path>
</g>
<g filter="url(#filter_3_1630)">
<path   fill-rule="evenodd"  fill="url(#linear_fill_3_1630_0)"  d="M66.2444 25.749L53.3444 17.869C53.0913 17.7145 52.8009 17.629 52.5044 17.629C52.2079 17.629 51.9175 17.7145 51.6644 17.869L38.7544 25.749C38.5158 25.8942 38.3189 26.1043 38.1844 26.349L52.5044 35.099L66.8144 26.349C66.6799 26.1043 66.483 25.8942 66.2444 25.749M52.5044 35.099L52.5044 50.949C52.801 50.949 53.0914 50.8638 53.3444 50.709L66.2444 42.829C66.4802 42.6851 66.6791 42.4799 66.8144 42.239C66.9497 41.9981 67.0144 41.7253 67.0144 41.449L67.0144 27.129C67.0144 26.8552 66.9474 26.5883 66.8144 26.349L52.5044 35.099M37.9844 27.129L37.9844 41.449C37.9844 41.7253 38.0591 41.9981 38.1944 42.239C38.3297 42.4799 38.5185 42.6851 38.7544 42.829L51.6644 50.709C51.9174 50.8638 52.2078 50.949 52.5044 50.949L52.5044 35.099L38.1844 26.349C38.0513 26.5883 37.9844 26.8552 37.9844 27.129">
</path>
</g>
<g filter="url(#filter_3_1631)">
<path   fill-rule="evenodd"  fill="url(#linear_fill_3_1631_0)"  d="M96.2444 44.9866L83.3444 37.1066C83.0913 36.9521 82.8009 36.8666 82.5044 36.8666C82.2079 36.8666 81.9175 36.9521 81.6644 37.1066L68.7544 44.9866C68.5158 45.1318 68.3189 45.3418 68.1844 45.5866L82.5044 54.3366L96.8144 45.5866C96.6799 45.3418 96.483 45.1318 96.2444 44.9866M82.5044 54.3366L82.5044 70.1866C82.801 70.1866 83.0914 70.1014 83.3444 69.9466L96.2444 62.0666C96.4802 61.9226 96.6791 61.7175 96.8144 61.4766C96.9497 61.2357 97.0144 60.9629 97.0144 60.6866L97.0144 46.3666C97.0144 46.0928 96.9474 45.8259 96.8144 45.5866L82.5044 54.3366M67.9844 46.3666L67.9844 60.6866C67.9844 60.9629 68.0591 61.2357 68.1944 61.4766C68.3297 61.7175 68.5185 61.9226 68.7544 62.0666L81.6644 69.9466C81.9174 70.1014 82.2078 70.1866 82.5044 70.1866L82.5044 54.3366L68.1844 45.5866C68.0513 45.8259 67.9844 46.0928 67.9844 46.3666">
</path>
</g>
<g filter="url(#filter_3_1632)">
<path   fill-rule="evenodd"  fill="url(#linear_fill_3_1632_0)"  d="M66.2434 67.0507L53.3434 59.1707C53.0903 59.0162 52.7999 58.9307 52.5034 58.9307C52.2069 58.9307 51.9165 59.0162 51.6634 59.1707L38.7534 67.0507C38.5148 67.1959 38.3179 67.4059 38.1834 67.6507L52.5034 76.4007L66.8134 67.6507C66.6789 67.4059 66.482 67.1959 66.2434 67.0507M52.5034 76.4007L52.5034 92.2507C52.8 92.2507 53.0904 92.1655 53.3434 92.0107L66.2434 84.1307C66.4792 83.9867 66.6781 83.7816 66.8134 83.5407C66.9487 83.2998 67.0134 83.027 67.0134 82.7507L67.0134 68.4307C67.0134 68.1569 66.9464 67.89 66.8134 67.6507L52.5034 76.4007M37.9834 68.4307L37.9834 82.7507C37.9834 83.027 38.0581 83.2998 38.1934 83.5407C38.3287 83.7816 38.5176 83.9867 38.7534 84.1307L51.6634 92.0107C51.9164 92.1655 52.2068 92.2507 52.5034 92.2507L52.5034 76.4007L38.1834 67.6507C38.0504 67.89 37.9834 68.1569 37.9834 68.4307">
</path>
</g>
<g filter="url(#filter_3_1633)">
<path     fill="url(#linear_fill_3_1633_0)" fill-opacity="0.20000000298023224" d="M71.1384 21.9596L53.6384 11.2596C53.2951 11.0501 52.9005 10.9396 52.4984 10.9396C52.0963 10.9396 51.7016 11.0501 51.3584 11.2596L33.8584 21.9596C33.5348 22.1565 33.2708 22.4277 33.0884 22.7596L52.4984 34.6296L71.9084 22.7596C71.726 22.4277 71.4619 22.1565 71.1384 21.9596">
</path>
<path fill-rule="evenodd"  fill="url(#linear_border_3_1633_0)"  d="M53.6384 11.2596L71.1384 21.9596C71.1651 21.9759 71.1915 21.9927 71.2174 22.01C71.4503 22.1653 71.6493 22.3609 71.8054 22.5913C71.8422 22.6455 71.8765 22.7016 71.9084 22.7596L52.4984 34.6296L33.0884 22.7596C33.1202 22.7016 33.1546 22.6455 33.1913 22.5913C33.3475 22.3609 33.5465 22.1653 33.7793 22.01C33.8053 21.9927 33.8316 21.9759 33.8584 21.9596L51.3584 11.2596C51.7016 11.0501 52.0963 10.9396 52.4984 10.9396C52.9005 10.9396 53.2951 11.0501 53.6384 11.2596ZM34.7361 22.5951L52.4984 33.4575L70.2607 22.5951L53.1174 12.1132L53.1167 12.1128Q52.8327 11.9396 52.4984 11.9396Q52.1637 11.9396 51.88 12.1128L34.7361 22.5951Z">
</path>
</g>
<g filter="url(#filter_3_1634)">
<path     fill="url(#linear_fill_3_1634_0)" fill-opacity="0.20000000298023224" d="M32.8125 23.8215L32.8125 43.2415C32.8125 43.6163 32.909 43.9848 33.0925 44.3115C33.276 44.6383 33.5427 44.9163 33.8625 45.1115L51.3625 55.8015C51.7056 56.0115 52.1003 56.1215 52.5025 56.1215L52.5025 34.6215L33.0925 22.7615C32.9124 23.0854 32.8125 23.451 32.8125 23.8215">
</path>
<path fill-rule="evenodd"  fill="url(#linear_border_3_1634_0)"  d="M33.9644 43.8219Q33.8125 43.5514 33.8125 43.2415L33.8125 24.3734L51.5025 35.1824L51.5025 54.7152L34.3838 44.2582Q34.1185 44.0962 33.9644 43.8219ZM52.5025 55.1215L52.5025 56.1215C52.1539 56.1215 51.8111 56.0389 51.5025 55.8802C51.455 55.8558 51.4083 55.8296 51.3625 55.8015L33.8625 45.1115C33.5427 44.9163 33.276 44.6383 33.0925 44.3115C32.909 43.9848 32.8125 43.6163 32.8125 43.2415L32.8125 23.8215C32.8125 23.802 32.8128 23.7824 32.8133 23.7629C32.8233 23.4125 32.9219 23.0683 33.0925 22.7615L52.5025 34.6215L52.5025 55.1215Z">
</path>
</g>
<g filter="url(#filter_3_1635)">
<path     fill="url(#linear_fill_3_1635_0)" fill-opacity="0.20000000298023224" d="M52.5 34.6215L52.5 56.1215C52.9022 56.1215 53.2969 56.0115 53.64 55.8015L71.14 45.1115C71.4598 44.9163 71.7265 44.6383 71.91 44.3115C72.0935 43.9848 72.19 43.6163 72.19 43.2415L72.19 23.8215C72.19 23.451 72.0901 23.0854 71.91 22.7615L52.5 34.6215">
</path>
<path fill-rule="evenodd"  fill="url(#linear_border_3_1635_0)"  d="M53.5 55.8802C53.1914 56.0389 52.8486 56.1215 52.5 56.1215L52.5 34.6215L71.0554 23.2837L71.91 22.7615C72.0806 23.0683 72.1792 23.4125 72.1892 23.7629C72.1897 23.7824 72.19 23.802 72.19 23.8215L72.19 43.2415C72.19 43.6163 72.0935 43.9848 71.91 44.3115C71.7265 44.6383 71.4598 44.9163 71.14 45.1115L53.64 55.8015C53.5942 55.8296 53.5475 55.8558 53.5 55.8802ZM53.5 54.7152L70.619 44.258Q70.884 44.0962 71.0381 43.8219Q71.19 43.5513 71.19 43.2415L71.19 24.3734L53.5 35.1824L53.5 54.7152Z">
</path>
</g>
<g filter="url(#filter_3_1636)">
<path     fill="url(#linear_fill_3_1636_0)" fill-opacity="0.20000000298023224" d="M103.951 42.0487L86.4509 31.3487C86.1076 31.1392 85.713 31.0287 85.3109 31.0287C84.9088 31.0287 84.5141 31.1392 84.1709 31.3487L66.6709 42.0487C66.3473 42.2457 66.0833 42.5168 65.9009 42.8487L85.3109 54.7187L104.721 42.8487C104.538 42.5168 104.274 42.2457 103.951 42.0487">
</path>
<path fill-rule="evenodd"  fill="url(#linear_border_3_1636_0)"  d="M86.4509 31.3487L103.951 42.0487C103.978 42.065 104.004 42.0818 104.03 42.0991C104.263 42.2544 104.462 42.45 104.618 42.6804C104.655 42.7346 104.689 42.7908 104.721 42.8487L85.3109 54.7187L65.9009 42.8487C65.9327 42.7908 65.9671 42.7346 66.0038 42.6804C66.16 42.45 66.359 42.2544 66.5918 42.0991C66.6178 42.0818 66.6441 42.065 66.6709 42.0487L84.1709 31.3487C84.5141 31.1392 84.9088 31.0287 85.3109 31.0287C85.713 31.0287 86.1076 31.1392 86.4509 31.3487ZM67.5486 42.6842L85.3109 53.5466L103.073 42.6842L85.9299 32.2023L85.9292 32.2019Q85.6452 32.0287 85.3109 32.0287Q84.9762 32.0287 84.6925 32.2019L67.5486 42.6842Z">
</path>
</g>
<g filter="url(#filter_3_1637)">
<path     fill="url(#linear_fill_3_1637_0)" fill-opacity="0.20000000298023224" d="M65.625 43.9128L65.625 63.3328C65.625 63.7075 65.7215 64.076 65.905 64.4028C66.0885 64.7295 66.3551 65.0076 66.675 65.2028L84.175 75.8928C84.5181 76.1027 84.9128 76.2128 85.315 76.2128L85.315 54.7128L65.905 42.8528C65.7246 43.1773 65.625 43.5415 65.625 43.9128">
</path>
<path fill-rule="evenodd"  fill="url(#linear_border_3_1637_0)"  d="M66.7769 63.9132Q66.625 63.6426 66.625 63.3328L66.625 44.4646L84.315 55.2737L84.315 74.8065L67.1963 64.3494Q66.931 64.1875 66.7769 63.9132ZM85.315 75.2128L85.315 76.2128C84.9664 76.2128 84.6236 76.1301 84.315 75.9715C84.2675 75.947 84.2208 75.9208 84.175 75.8928L66.675 65.2028C66.3551 65.0076 66.0885 64.7295 65.905 64.4028C65.7215 64.076 65.625 63.7075 65.625 63.3328L65.625 43.9128C65.625 43.8932 65.6253 43.8736 65.6258 43.8541C65.6357 43.5032 65.7341 43.1602 65.905 42.8528L66.7596 43.3749L85.315 54.7128L85.315 75.2128Z">
</path>
</g>
<g filter="url(#filter_3_1638)">
<path     fill="url(#linear_fill_3_1638_0)" fill-opacity="0.20000000298023224" d="M85.3125 54.7128L85.3125 76.2128C85.7147 76.2128 86.1094 76.1027 86.4525 75.8928L103.952 65.2028C104.272 65.0076 104.539 64.7295 104.723 64.4028C104.906 64.076 105.003 63.7075 105.003 63.3328L105.003 43.9128C105.003 43.5415 104.903 43.1773 104.723 42.8528L85.3125 54.7128">
</path>
<path fill-rule="evenodd"  fill="url(#linear_border_3_1638_0)"  d="M86.3125 75.9715C86.0039 76.1301 85.6611 76.2128 85.3125 76.2128L85.3125 54.7128L103.868 43.3749L104.723 42.8528C104.893 43.1602 104.992 43.5032 105.002 43.8541C105.002 43.8736 105.003 43.8932 105.003 43.9128L105.003 63.3328C105.003 63.7075 104.906 64.076 104.723 64.4028C104.539 64.7295 104.272 65.0076 103.952 65.2028L86.4525 75.8928C86.4067 75.9208 86.36 75.947 86.3125 75.9715ZM86.3125 74.8065L103.431 64.3492Q103.697 64.1875 103.851 63.9132Q104.003 63.6426 104.003 63.3328L104.003 44.4646L86.3125 55.2737L86.3125 74.8065Z">
</path>
</g>
<g filter="url(#filter_3_1639)">
<path     fill="url(#linear_fill_3_1639_0)" fill-opacity="0.20000000298023224" d="M38.3259 42.0487L20.8259 31.3487C20.4826 31.1392 20.088 31.0287 19.6859 31.0287C19.2838 31.0287 18.8891 31.1392 18.5459 31.3487L1.04588 42.0487C0.722325 42.2457 0.458259 42.5168 0.275879 42.8487L19.6859 54.7187L39.0959 42.8487C38.9135 42.5168 38.6494 42.2457 38.3259 42.0487">
</path>
<path fill-rule="evenodd"  fill="url(#linear_border_3_1639_0)"  d="M20.8259 31.3487L38.3259 42.0487C38.3526 42.065 38.379 42.0818 38.4049 42.0991C38.6378 42.2544 38.8368 42.45 38.9929 42.6804C39.0297 42.7346 39.064 42.7908 39.0959 42.8487L19.6859 54.7187L0.275879 42.8487C0.307741 42.7908 0.342095 42.7346 0.378825 42.6804C0.53495 42.45 0.733981 42.2544 0.966829 42.0991C0.992764 42.0818 1.01912 42.065 1.04588 42.0487L18.5459 31.3487C18.8891 31.1392 19.2838 31.0287 19.6859 31.0287C20.088 31.0287 20.4826 31.1392 20.8259 31.3487ZM1.92357 42.6842L19.6859 53.5466L37.4482 42.6842L20.3049 32.2023L20.3042 32.2019Q20.0202 32.0287 19.6859 32.0287Q19.3512 32.0287 19.0675 32.2019L1.92357 42.6842Z">
</path>
</g>
<g filter="url(#filter_3_1640)">
<path     fill="url(#linear_fill_3_1640_0)" fill-opacity="0.20000000298023224" d="M0 43.9128L0 63.3328C0 63.7075 0.0965233 64.076 0.28 64.4028C0.463477 64.7295 0.730151 65.0076 1.05 65.2028L18.55 75.8928C18.8931 76.1027 19.2878 76.2128 19.69 76.2128L19.69 54.7128L0.28 42.8528C0.0995721 43.1773 0 43.5415 0 43.9128">
</path>
<path fill-rule="evenodd"  fill="url(#linear_border_3_1640_0)"  d="M1.15193 63.9132Q1 63.6426 1 63.3328L1 44.4646L18.69 55.2737L18.69 74.8065L1.57129 64.3494Q1.30596 64.1875 1.15193 63.9132ZM19.69 75.2128L19.69 76.2128C19.3414 76.2128 18.9986 76.1301 18.69 75.9715C18.6425 75.947 18.5958 75.9208 18.55 75.8928L1.05 65.2028C0.730151 65.0076 0.463477 64.7295 0.28 64.4028C0.0965233 64.076 0 63.7075 0 63.3328L0 43.9128C0 43.8932 0.000276925 43.8736 0.000828031 43.8541C0.0107271 43.5032 0.109087 43.1602 0.28 42.8528L1.13456 43.3749L19.69 54.7128L19.69 75.2128Z">
</path>
</g>
<g filter="url(#filter_3_1641)">
<path     fill="url(#linear_fill_3_1641_0)" fill-opacity="0.20000000298023224" d="M19.6875 54.7128L19.6875 76.2128C20.0897 76.2128 20.4844 76.1027 20.8275 75.8928L38.3275 65.2028C38.6473 65.0076 38.914 64.7295 39.0975 64.4028C39.281 64.076 39.3775 63.7075 39.3775 63.3328L39.3775 43.9128C39.3775 43.5415 39.2779 43.1773 39.0975 42.8528L19.6875 54.7128">
</path>
<path fill-rule="evenodd"  fill="url(#linear_border_3_1641_0)"  d="M20.6875 75.9715C20.3789 76.1301 20.0361 76.2128 19.6875 76.2128L19.6875 54.7128L38.2429 43.3749L39.0975 42.8528C39.2684 43.1602 39.3668 43.5032 39.3767 43.8541C39.3772 43.8736 39.3775 43.8932 39.3775 43.9128L39.3775 63.3328C39.3775 63.7075 39.281 64.076 39.0975 64.4028C38.914 64.7295 38.6473 65.0076 38.3275 65.2028L20.8275 75.8928C20.7817 75.9208 20.735 75.947 20.6875 75.9715ZM20.6875 74.8065L37.8065 64.3492Q38.0715 64.1875 38.2256 63.9132Q38.3775 63.6426 38.3775 63.3328L38.3775 44.4646L20.6875 55.2737L20.6875 74.8065Z">
</path>
</g>
<g filter="url(#filter_3_1642)">
<path     fill="url(#linear_fill_3_1642_0)" fill-opacity="0.20000000298023224" d="M71.1384 63.8981L53.6384 53.1981C53.2951 52.9886 52.9005 52.8781 52.4984 52.8781C52.0963 52.8781 51.7016 52.9886 51.3584 53.1981L33.8584 63.8981C33.5348 64.095 33.2708 64.3662 33.0884 64.6981L52.4984 76.5681L71.9084 64.6981C71.726 64.3662 71.4619 64.095 71.1384 63.8981">
</path>
<path fill-rule="evenodd"  fill="url(#linear_border_3_1642_0)"  d="M53.6384 53.1981L71.1384 63.8981C71.1651 63.9144 71.1915 63.9312 71.2174 63.9485C71.4503 64.1038 71.6493 64.2994 71.8054 64.5298C71.8422 64.584 71.8765 64.6401 71.9084 64.6981L52.4984 76.5681L33.0884 64.6981C33.1202 64.6401 33.1546 64.584 33.1913 64.5298C33.3475 64.2993 33.5465 64.1038 33.7793 63.9485C33.8053 63.9312 33.8316 63.9144 33.8584 63.8981L51.3584 53.1981C51.7016 52.9886 52.0963 52.8781 52.4984 52.8781C52.9005 52.8781 53.2951 52.9886 53.6384 53.1981ZM34.7361 64.5336L52.4984 75.3959L70.2607 64.5336L53.1174 54.0517L53.1167 54.0513Q52.8327 53.8781 52.4984 53.8781Q52.1637 53.8781 51.88 54.0513L34.7361 64.5336Z">
</path>
</g>
<g filter="url(#filter_3_1643)">
<path     fill="url(#linear_fill_3_1643_0)" fill-opacity="0.20000000298023224" d="M32.8125 65.76L32.8125 85.18C32.8125 85.5547 32.909 85.9233 33.0925 86.25C33.276 86.5768 33.5427 86.8548 33.8625 87.05L51.3625 97.74C51.7056 97.95 52.1003 98.06 52.5025 98.06L52.5025 76.56L33.0925 64.7C32.9124 65.0239 32.8125 65.3895 32.8125 65.76">
</path>
<path fill-rule="evenodd"  fill="url(#linear_border_3_1643_0)"  d="M33.9644 85.7604Q33.8125 85.4898 33.8125 85.18L33.8125 66.3119L51.5025 77.1209L51.5025 96.6537L34.3838 86.1966Q34.1185 86.0347 33.9644 85.7604ZM52.5025 97.06L52.5025 98.06C52.1539 98.06 51.8111 97.9774 51.5025 97.8187C51.455 97.7943 51.4083 97.768 51.3625 97.74L33.8625 87.05C33.5427 86.8548 33.276 86.5768 33.0925 86.25C32.909 85.9233 32.8125 85.5547 32.8125 85.18L32.8125 65.76C32.8125 65.7404 32.8128 65.7209 32.8133 65.7013C32.8233 65.3509 32.9219 65.0068 33.0925 64.7L52.5025 76.56L52.5025 97.06Z">
</path>
</g>
<g filter="url(#filter_3_1644)">
<path     fill="url(#linear_fill_3_1644_0)" fill-opacity="0.20000000298023224" d="M52.5 76.56L52.5 98.06C52.9022 98.06 53.2969 97.95 53.64 97.74L71.14 87.05C71.4598 86.8548 71.7265 86.5768 71.91 86.25C72.0935 85.9233 72.19 85.5547 72.19 85.18L72.19 65.76C72.19 65.3895 72.0901 65.0239 71.91 64.7L52.5 76.56">
</path>
<path fill-rule="evenodd"  fill="url(#linear_border_3_1644_0)"  d="M53.5 97.8187C53.1914 97.9774 52.8486 98.06 52.5 98.06L52.5 76.56L71.0554 65.2222L71.91 64.7C72.0806 65.0068 72.1792 65.3509 72.1892 65.7013C72.1897 65.7209 72.19 65.7404 72.19 65.76L72.19 85.18C72.19 85.5547 72.0935 85.9233 71.91 86.25C71.7265 86.5768 71.4598 86.8548 71.14 87.05L53.64 97.74C53.5942 97.768 53.5475 97.7943 53.5 97.8187ZM53.5 96.6537L70.619 86.1965Q70.884 86.0347 71.0381 85.7604Q71.19 85.4898 71.19 85.18L71.19 66.3119L53.5 77.1209L53.5 96.6537Z">
</path>
</g>
</g>
<defs>
<clipPath id="clip-path-TfvJ_lKCNrV7VB58fmCp9">
<path d="M0 105L105 105L105 0L0 0L0 105Z" fill="white"/>
</clipPath>
<linearGradient id="linear_fill_3_1628_0" x1="3.8095703125" y1="35.401611328125" x2="35.572265625" y2="71.84536743164062" gradientUnits="userSpaceOnUse">
<stop offset="0" stop-color="#D8FF18"  />
<stop offset="0.7031" stop-color="#FFFFFF"  />
</linearGradient>
<filter id="filter_3_1628" x="3.8095703125" y="35.401611328125" width="31.759765625" height="36.44000244140625" filterUnits="userSpaceOnUse" color-interpolation-filters="sRGB">
<feFlood flood-opacity="0" result="feFloodId_3_1628"/>
<feGaussianBlur in="feFloodId_3_1628" stdDeviation_bg="4.84" type="BackgroundImage" />
<feComposite in2="SourceAlpha" operator="in" result="background_Blur_3_1628"/>
<feBlend mode="normal" in="SourceGraphic" in2="background_Blur_3_1628" result="shape_3_1628"/>
<feBlend mode="normal" in="SourceGraphic" in2="feFloodId_3_1628" result="shape_3_1628"/>
<feColorMatrix in="SourceAlpha" type="matrix" values="0 0 0 0 0 0 0 0 0 0 0 0 0 0 0 0 0 0 127 0" result="hardAlpha_3_1628"/>
<feOffset dx="0" dy="1.6"/>
<feGaussianBlur stdDeviation="3.22"/>
<feComposite in2="hardAlpha_3_1628" operator="arithmetic" k2="-1" k3="1"/>
<feColorMatrix type="matrix" values="0 0 0 0 1 0 0 0 0 1 0 0 0 0 1 0 0 0 0.4 0"/>
<feBlend mode="normal" in2="shape_3_1628" result="innerShadow_0_3_1628" />
</filter>
<linearGradient id="linear_fill_3_1629_0" x1="3.81103515625" y1="35.401611328125" x2="35.57373046875" y2="71.84536743164062" gradientUnits="userSpaceOnUse">
<stop offset="0" stop-color="#D8FF18"  />
<stop offset="0.7031" stop-color="#FFFFFF"  />
</linearGradient>
<filter id="filter_3_1629" x="3.81103515625" y="35.401611328125" width="31.759765625" height="36.44000244140625" filterUnits="userSpaceOnUse" color-interpolation-filters="sRGB">
<feFlood flood-opacity="0" result="feFloodId_3_1629"/>
<feGaussianBlur in="feFloodId_3_1629" stdDeviation_bg="4.84" type="BackgroundImage" />
<feComposite in2="SourceAlpha" operator="in" result="background_Blur_3_1629"/>
<feBlend mode="normal" in="SourceGraphic" in2="background_Blur_3_1629" result="shape_3_1629"/>
<feBlend mode="normal" in="SourceGraphic" in2="feFloodId_3_1629" result="shape_3_1629"/>
<feColorMatrix in="SourceAlpha" type="matrix" values="0 0 0 0 0 0 0 0 0 0 0 0 0 0 0 0 0 0 127 0" result="hardAlpha_3_1629"/>
<feOffset dx="0" dy="1.6"/>
<feGaussianBlur stdDeviation="3.22"/>
<feComposite in2="hardAlpha_3_1629" operator="arithmetic" k2="-1" k3="1"/>
<feColorMatrix type="matrix" values="0 0 0 0 1 0 0 0 0 1 0 0 0 0 1 0 0 0 0.4 0"/>
<feBlend mode="normal" in2="shape_3_1629" result="innerShadow_0_3_1629" />
</filter>
<linearGradient id="linear_fill_3_1630_0" x1="37.984375" y1="17.6290283203125" x2="67.0244140625" y2="50.94903564453125" gradientUnits="userSpaceOnUse">
<stop offset="0" stop-color="#D8FF18"  />
<stop offset="0.7031" stop-color="#FFFFFF"  />
</linearGradient>
<filter id="filter_3_1630" x="37.984375" y="17.6290283203125" width="29.02978515625" height="33.32000732421875" filterUnits="userSpaceOnUse" color-interpolation-filters="sRGB">
<feFlood flood-opacity="0" result="feFloodId_3_1630"/>
<feGaussianBlur in="feFloodId_3_1630" stdDeviation_bg="4.84" type="BackgroundImage" />
<feComposite in2="SourceAlpha" operator="in" result="background_Blur_3_1630"/>
<feBlend mode="normal" in="SourceGraphic" in2="background_Blur_3_1630" result="shape_3_1630"/>
<feBlend mode="normal" in="SourceGraphic" in2="feFloodId_3_1630" result="shape_3_1630"/>
<feColorMatrix in="SourceAlpha" type="matrix" values="0 0 0 0 0 0 0 0 0 0 0 0 0 0 0 0 0 0 127 0" result="hardAlpha_3_1630"/>
<feOffset dx="0" dy="1.6"/>
<feGaussianBlur stdDeviation="3.22"/>
<feComposite in2="hardAlpha_3_1630" operator="arithmetic" k2="-1" k3="1"/>
<feColorMatrix type="matrix" values="0 0 0 0 1 0 0 0 0 1 0 0 0 0 1 0 0 0 0.4 0"/>
<feBlend mode="normal" in2="shape_3_1630" result="innerShadow_0_3_1630" />
</filter>
<linearGradient id="linear_fill_3_1631_0" x1="67.984375" y1="36.8665771484375" x2="97.0244140625" y2="70.18658447265625" gradientUnits="userSpaceOnUse">
<stop offset="0" stop-color="#D8FF18"  />
<stop offset="0.7031" stop-color="#FFFFFF"  />
</linearGradient>
<filter id="filter_3_1631" x="67.984375" y="36.8665771484375" width="29.02978515625" height="33.32000732421875" filterUnits="userSpaceOnUse" color-interpolation-filters="sRGB">
<feFlood flood-opacity="0" result="feFloodId_3_1631"/>
<feGaussianBlur in="feFloodId_3_1631" stdDeviation_bg="4.84" type="BackgroundImage" />
<feComposite in2="SourceAlpha" operator="in" result="background_Blur_3_1631"/>
<feBlend mode="normal" in="SourceGraphic" in2="background_Blur_3_1631" result="shape_3_1631"/>
<feBlend mode="normal" in="SourceGraphic" in2="feFloodId_3_1631" result="shape_3_1631"/>
<feColorMatrix in="SourceAlpha" type="matrix" values="0 0 0 0 0 0 0 0 0 0 0 0 0 0 0 0 0 0 127 0" result="hardAlpha_3_1631"/>
<feOffset dx="0" dy="1.6"/>
<feGaussianBlur stdDeviation="3.22"/>
<feComposite in2="hardAlpha_3_1631" operator="arithmetic" k2="-1" k3="1"/>
<feColorMatrix type="matrix" values="0 0 0 0 1 0 0 0 0 1 0 0 0 0 1 0 0 0 0.4 0"/>
<feBlend mode="normal" in2="shape_3_1631" result="innerShadow_0_3_1631" />
</filter>
<linearGradient id="linear_fill_3_1632_0" x1="37.9833984375" y1="58.930694580078125" x2="67.0234375" y2="92.25070190429688" gradientUnits="userSpaceOnUse">
<stop offset="0" stop-color="#D8FF18"  />
<stop offset="0.7031" stop-color="#FFFFFF"  />
</linearGradient>
<filter id="filter_3_1632" x="37.9833984375" y="58.930694580078125" width="29.02978515625" height="33.32000732421875" filterUnits="userSpaceOnUse" color-interpolation-filters="sRGB">
<feFlood flood-opacity="0" result="feFloodId_3_1632"/>
<feGaussianBlur in="feFloodId_3_1632" stdDeviation_bg="4.84" type="BackgroundImage" />
<feComposite in2="SourceAlpha" operator="in" result="background_Blur_3_1632"/>
<feBlend mode="normal" in="SourceGraphic" in2="background_Blur_3_1632" result="shape_3_1632"/>
<feBlend mode="normal" in="SourceGraphic" in2="feFloodId_3_1632" result="shape_3_1632"/>
<feColorMatrix in="SourceAlpha" type="matrix" values="0 0 0 0 0 0 0 0 0 0 0 0 0 0 0 0 0 0 127 0" result="hardAlpha_3_1632"/>
<feOffset dx="0" dy="1.6"/>
<feGaussianBlur stdDeviation="3.22"/>
<feComposite in2="hardAlpha_3_1632" operator="arithmetic" k2="-1" k3="1"/>
<feColorMatrix type="matrix" values="0 0 0 0 1 0 0 0 0 1 0 0 0 0 1 0 0 0 0.4 0"/>
<feBlend mode="normal" in2="shape_3_1632" result="innerShadow_0_3_1632" />
</filter>
<linearGradient id="linear_fill_3_1633_0" x1="33.08837890625" y1="10.93963623046875" x2="71.89453125" y2="34.6083984375" gradientUnits="userSpaceOnUse">
<stop offset="0" stop-color="#D8FF18"  />
<stop offset="0.4531" stop-color="#FEFFAB"  />
</linearGradient>
<linearGradient id="linear_border_3_1633_0" x1="34.30126953125" y1="12.0155029296875" x2="71.89453125" y2="12.0155029296875" gradientUnits="userSpaceOnUse">
<stop offset="0" stop-color="#D8FF18"  />
<stop offset="0.65625" stop-color="#364AFF"  />
</linearGradient>
<filter id="filter_3_1633" x="33.08837890625" y="10.93963623046875" width="38.81982421875" height="23.69000244140625" filterUnits="userSpaceOnUse" color-interpolation-filters="sRGB">
<feFlood flood-opacity="0" result="feFloodId_3_1633"/>
<feGaussianBlur in="feFloodId_3_1633" stdDeviation_bg="6" type="BackgroundImage" />
<feComposite in2="SourceAlpha" operator="in" result="background_Blur_3_1633"/>
<feBlend mode="normal" in="SourceGraphic" in2="background_Blur_3_1633" result="shape_3_1633"/>
<feBlend mode="normal" in="SourceGraphic" in2="feFloodId_3_1633" result="shape_3_1633"/>
<feColorMatrix in="SourceAlpha" type="matrix" values="0 0 0 0 0 0 0 0 0 0 0 0 0 0 0 0 0 0 127 0" result="hardAlpha_3_1633"/>
<feOffset dx="0" dy="2"/>
<feGaussianBlur stdDeviation="4"/>
<feComposite in2="hardAlpha_3_1633" operator="arithmetic" k2="-1" k3="1"/>
<feColorMatrix type="matrix" values="0 0 0 0 1 0 0 0 0 1 0 0 0 0 1 0 0 0 0.4 0"/>
<feBlend mode="normal" in2="shape_3_1633" result="innerShadow_0_3_1633" />
</filter>
<linearGradient id="linear_fill_3_1634_0" x1="32.8125" y1="22.76153564453125" x2="52.5" y2="56.142791748046875" gradientUnits="userSpaceOnUse">
<stop offset="0" stop-color="#D8FF18"  />
<stop offset="0.4531" stop-color="#FEFFAB"  />
</linearGradient>
<linearGradient id="linear_border_3_1634_0" x1="33.427734375" y1="24.27886962890625" x2="52.5" y2="24.27886962890625" gradientUnits="userSpaceOnUse">
<stop offset="0" stop-color="#D8FF18"  />
<stop offset="0.65625" stop-color="#364AFF"  />
</linearGradient>
<filter id="filter_3_1634" x="32.8125" y="22.76153564453125" width="19.68994140625" height="33.360015869140625" filterUnits="userSpaceOnUse" color-interpolation-filters="sRGB">
<feFlood flood-opacity="0" result="feFloodId_3_1634"/>
<feGaussianBlur in="feFloodId_3_1634" stdDeviation_bg="6" type="BackgroundImage" />
<feComposite in2="SourceAlpha" operator="in" result="background_Blur_3_1634"/>
<feBlend mode="normal" in="SourceGraphic" in2="background_Blur_3_1634" result="shape_3_1634"/>
<feBlend mode="normal" in="SourceGraphic" in2="feFloodId_3_1634" result="shape_3_1634"/>
<feColorMatrix in="SourceAlpha" type="matrix" values="0 0 0 0 0 0 0 0 0 0 0 0 0 0 0 0 0 0 127 0" result="hardAlpha_3_1634"/>
<feOffset dx="0" dy="2"/>
<feGaussianBlur stdDeviation="4"/>
<feComposite in2="hardAlpha_3_1634" operator="arithmetic" k2="-1" k3="1"/>
<feColorMatrix type="matrix" values="0 0 0 0 1 0 0 0 0 1 0 0 0 0 1 0 0 0 0.4 0"/>
<feBlend mode="normal" in2="shape_3_1634" result="innerShadow_0_3_1634" />
</filter>
<linearGradient id="linear_fill_3_1635_0" x1="52.5" y1="22.76153564453125" x2="72.1875" y2="56.142791748046875" gradientUnits="userSpaceOnUse">
<stop offset="0" stop-color="#D8FF18"  />
<stop offset="0.4531" stop-color="#FEFFAB"  />
</linearGradient>
<linearGradient id="linear_border_3_1635_0" x1="53.115234375" y1="24.27886962890625" x2="72.1875" y2="24.27886962890625" gradientUnits="userSpaceOnUse">
<stop offset="0" stop-color="#D8FF18"  />
<stop offset="0.65625" stop-color="#364AFF"  />
</linearGradient>
<filter id="filter_3_1635" x="52.5" y="22.76153564453125" width="19.68994140625" height="33.360015869140625" filterUnits="userSpaceOnUse" color-interpolation-filters="sRGB">
<feFlood flood-opacity="0" result="feFloodId_3_1635"/>
<feGaussianBlur in="feFloodId_3_1635" stdDeviation_bg="6" type="BackgroundImage" />
<feComposite in2="SourceAlpha" operator="in" result="background_Blur_3_1635"/>
<feBlend mode="normal" in="SourceGraphic" in2="background_Blur_3_1635" result="shape_3_1635"/>
<feBlend mode="normal" in="SourceGraphic" in2="feFloodId_3_1635" result="shape_3_1635"/>
<feColorMatrix in="SourceAlpha" type="matrix" values="0 0 0 0 0 0 0 0 0 0 0 0 0 0 0 0 0 0 127 0" result="hardAlpha_3_1635"/>
<feOffset dx="0" dy="2"/>
<feGaussianBlur stdDeviation="4"/>
<feComposite in2="hardAlpha_3_1635" operator="arithmetic" k2="-1" k3="1"/>
<feColorMatrix type="matrix" values="0 0 0 0 1 0 0 0 0 1 0 0 0 0 1 0 0 0 0.4 0"/>
<feBlend mode="normal" in2="shape_3_1635" result="innerShadow_0_3_1635" />
</filter>
<linearGradient id="linear_fill_3_1636_0" x1="65.90087890625" y1="31.02874755859375" x2="104.70703125" y2="54.697509765625" gradientUnits="userSpaceOnUse">
<stop offset="0" stop-color="#D8FF18"  />
<stop offset="0.4531" stop-color="#FEFFAB"  />
</linearGradient>
<linearGradient id="linear_border_3_1636_0" x1="67.11376953125" y1="32.1046142578125" x2="104.70703125" y2="32.1046142578125" gradientUnits="userSpaceOnUse">
<stop offset="0" stop-color="#D8FF18"  />
<stop offset="0.65625" stop-color="#364AFF"  />
</linearGradient>
<filter id="filter_3_1636" x="65.90087890625" y="31.02874755859375" width="38.81982421875" height="23.69000244140625" filterUnits="userSpaceOnUse" color-interpolation-filters="sRGB">
<feFlood flood-opacity="0" result="feFloodId_3_1636"/>
<feGaussianBlur in="feFloodId_3_1636" stdDeviation_bg="6" type="BackgroundImage" />
<feComposite in2="SourceAlpha" operator="in" result="background_Blur_3_1636"/>
<feBlend mode="normal" in="SourceGraphic" in2="background_Blur_3_1636" result="shape_3_1636"/>
<feBlend mode="normal" in="SourceGraphic" in2="feFloodId_3_1636" result="shape_3_1636"/>
<feColorMatrix in="SourceAlpha" type="matrix" values="0 0 0 0 0 0 0 0 0 0 0 0 0 0 0 0 0 0 127 0" result="hardAlpha_3_1636"/>
<feOffset dx="0" dy="2"/>
<feGaussianBlur stdDeviation="4"/>
<feComposite in2="hardAlpha_3_1636" operator="arithmetic" k2="-1" k3="1"/>
<feColorMatrix type="matrix" values="0 0 0 0 1 0 0 0 0 1 0 0 0 0 1 0 0 0 0.4 0"/>
<feBlend mode="normal" in2="shape_3_1636" result="innerShadow_0_3_1636" />
</filter>
<linearGradient id="linear_fill_3_1637_0" x1="65.625" y1="42.852783203125" x2="85.3125" y2="76.23403930664062" gradientUnits="userSpaceOnUse">
<stop offset="0" stop-color="#D8FF18"  />
<stop offset="0.4531" stop-color="#FEFFAB"  />
</linearGradient>
<linearGradient id="linear_border_3_1637_0" x1="66.240234375" y1="44.3701171875" x2="85.3125" y2="44.3701171875" gradientUnits="userSpaceOnUse">
<stop offset="0" stop-color="#D8FF18"  />
<stop offset="0.65625" stop-color="#364AFF"  />
</linearGradient>
<filter id="filter_3_1637" x="65.625" y="42.852783203125" width="19.68994140625" height="33.360015869140625" filterUnits="userSpaceOnUse" color-interpolation-filters="sRGB">
<feFlood flood-opacity="0" result="feFloodId_3_1637"/>
<feGaussianBlur in="feFloodId_3_1637" stdDeviation_bg="6" type="BackgroundImage" />
<feComposite in2="SourceAlpha" operator="in" result="background_Blur_3_1637"/>
<feBlend mode="normal" in="SourceGraphic" in2="background_Blur_3_1637" result="shape_3_1637"/>
<feBlend mode="normal" in="SourceGraphic" in2="feFloodId_3_1637" result="shape_3_1637"/>
<feColorMatrix in="SourceAlpha" type="matrix" values="0 0 0 0 0 0 0 0 0 0 0 0 0 0 0 0 0 0 127 0" result="hardAlpha_3_1637"/>
<feOffset dx="0" dy="2"/>
<feGaussianBlur stdDeviation="4"/>
<feComposite in2="hardAlpha_3_1637" operator="arithmetic" k2="-1" k3="1"/>
<feColorMatrix type="matrix" values="0 0 0 0 1 0 0 0 0 1 0 0 0 0 1 0 0 0 0.4 0"/>
<feBlend mode="normal" in2="shape_3_1637" result="innerShadow_0_3_1637" />
</filter>
<linearGradient id="linear_fill_3_1638_0" x1="85.3125" y1="42.852783203125" x2="105" y2="76.23403930664062" gradientUnits="userSpaceOnUse">
<stop offset="0" stop-color="#D8FF18"  />
<stop offset="0.4531" stop-color="#FEFFAB"  />
</linearGradient>
<linearGradient id="linear_border_3_1638_0" x1="85.927734375" y1="44.3701171875" x2="105" y2="44.3701171875" gradientUnits="userSpaceOnUse">
<stop offset="0" stop-color="#D8FF18"  />
<stop offset="0.65625" stop-color="#364AFF"  />
</linearGradient>
<filter id="filter_3_1638" x="85.3125" y="42.852783203125" width="19.68994140625" height="33.360015869140625" filterUnits="userSpaceOnUse" color-interpolation-filters="sRGB">
<feFlood flood-opacity="0" result="feFloodId_3_1638"/>
<feGaussianBlur in="feFloodId_3_1638" stdDeviation_bg="6" type="BackgroundImage" />
<feComposite in2="SourceAlpha" operator="in" result="background_Blur_3_1638"/>
<feBlend mode="normal" in="SourceGraphic" in2="background_Blur_3_1638" result="shape_3_1638"/>
<feBlend mode="normal" in="SourceGraphic" in2="feFloodId_3_1638" result="shape_3_1638"/>
<feColorMatrix in="SourceAlpha" type="matrix" values="0 0 0 0 0 0 0 0 0 0 0 0 0 0 0 0 0 0 127 0" result="hardAlpha_3_1638"/>
<feOffset dx="0" dy="2"/>
<feGaussianBlur stdDeviation="4"/>
<feComposite in2="hardAlpha_3_1638" operator="arithmetic" k2="-1" k3="1"/>
<feColorMatrix type="matrix" values="0 0 0 0 1 0 0 0 0 1 0 0 0 0 1 0 0 0 0.4 0"/>
<feBlend mode="normal" in2="shape_3_1638" result="innerShadow_0_3_1638" />
</filter>
<linearGradient id="linear_fill_3_1639_0" x1="0.27587890625" y1="31.02874755859375" x2="39.08203125" y2="54.697509765625" gradientUnits="userSpaceOnUse">
<stop offset="0" stop-color="#D8FF18"  />
<stop offset="0.4531" stop-color="#FEFFAB"  />
</linearGradient>
<linearGradient id="linear_border_3_1639_0" x1="1.48876953125" y1="32.1046142578125" x2="39.08203125" y2="32.1046142578125" gradientUnits="userSpaceOnUse">
<stop offset="0" stop-color="#D8FF18"  />
<stop offset="0.65625" stop-color="#364AFF"  />
</linearGradient>
<filter id="filter_3_1639" x="0.27587890625" y="31.02874755859375" width="38.81982421875" height="23.69000244140625" filterUnits="userSpaceOnUse" color-interpolation-filters="sRGB">
<feFlood flood-opacity="0" result="feFloodId_3_1639"/>
<feGaussianBlur in="feFloodId_3_1639" stdDeviation_bg="6" type="BackgroundImage" />
<feComposite in2="SourceAlpha" operator="in" result="background_Blur_3_1639"/>
<feBlend mode="normal" in="SourceGraphic" in2="background_Blur_3_1639" result="shape_3_1639"/>
<feBlend mode="normal" in="SourceGraphic" in2="feFloodId_3_1639" result="shape_3_1639"/>
<feColorMatrix in="SourceAlpha" type="matrix" values="0 0 0 0 0 0 0 0 0 0 0 0 0 0 0 0 0 0 127 0" result="hardAlpha_3_1639"/>
<feOffset dx="0" dy="2"/>
<feGaussianBlur stdDeviation="4"/>
<feComposite in2="hardAlpha_3_1639" operator="arithmetic" k2="-1" k3="1"/>
<feColorMatrix type="matrix" values="0 0 0 0 1 0 0 0 0 1 0 0 0 0 1 0 0 0 0.4 0"/>
<feBlend mode="normal" in2="shape_3_1639" result="innerShadow_0_3_1639" />
</filter>
<linearGradient id="linear_fill_3_1640_0" x1="0" y1="42.852783203125" x2="19.6875" y2="76.23403930664062" gradientUnits="userSpaceOnUse">
<stop offset="0" stop-color="#D8FF18"  />
<stop offset="0.4531" stop-color="#FEFFAB"  />
</linearGradient>
<linearGradient id="linear_border_3_1640_0" x1="0.615234375" y1="44.3701171875" x2="19.6875" y2="44.3701171875" gradientUnits="userSpaceOnUse">
<stop offset="0" stop-color="#D8FF18"  />
<stop offset="0.65625" stop-color="#364AFF"  />
</linearGradient>
<filter id="filter_3_1640" x="0" y="42.852783203125" width="19.68994140625" height="33.360015869140625" filterUnits="userSpaceOnUse" color-interpolation-filters="sRGB">
<feFlood flood-opacity="0" result="feFloodId_3_1640"/>
<feGaussianBlur in="feFloodId_3_1640" stdDeviation_bg="6" type="BackgroundImage" />
<feComposite in2="SourceAlpha" operator="in" result="background_Blur_3_1640"/>
<feBlend mode="normal" in="SourceGraphic" in2="background_Blur_3_1640" result="shape_3_1640"/>
<feBlend mode="normal" in="SourceGraphic" in2="feFloodId_3_1640" result="shape_3_1640"/>
<feColorMatrix in="SourceAlpha" type="matrix" values="0 0 0 0 0 0 0 0 0 0 0 0 0 0 0 0 0 0 127 0" result="hardAlpha_3_1640"/>
<feOffset dx="0" dy="2"/>
<feGaussianBlur stdDeviation="4"/>
<feComposite in2="hardAlpha_3_1640" operator="arithmetic" k2="-1" k3="1"/>
<feColorMatrix type="matrix" values="0 0 0 0 1 0 0 0 0 1 0 0 0 0 1 0 0 0 0.4 0"/>
<feBlend mode="normal" in2="shape_3_1640" result="innerShadow_0_3_1640" />
</filter>
<linearGradient id="linear_fill_3_1641_0" x1="19.6875" y1="42.852783203125" x2="39.375" y2="76.23403930664062" gradientUnits="userSpaceOnUse">
<stop offset="0" stop-color="#D8FF18"  />
<stop offset="0.4531" stop-color="#FEFFAB"  />
</linearGradient>
<linearGradient id="linear_border_3_1641_0" x1="20.302734375" y1="44.3701171875" x2="39.375" y2="44.3701171875" gradientUnits="userSpaceOnUse">
<stop offset="0" stop-color="#D8FF18"  />
<stop offset="0.65625" stop-color="#364AFF"  />
</linearGradient>
<filter id="filter_3_1641" x="19.6875" y="42.852783203125" width="19.68994140625" height="33.360015869140625" filterUnits="userSpaceOnUse" color-interpolation-filters="sRGB">
<feFlood flood-opacity="0" result="feFloodId_3_1641"/>
<feGaussianBlur in="feFloodId_3_1641" stdDeviation_bg="6" type="BackgroundImage" />
<feComposite in2="SourceAlpha" operator="in" result="background_Blur_3_1641"/>
<feBlend mode="normal" in="SourceGraphic" in2="background_Blur_3_1641" result="shape_3_1641"/>
<feBlend mode="normal" in="SourceGraphic" in2="feFloodId_3_1641" result="shape_3_1641"/>
<feColorMatrix in="SourceAlpha" type="matrix" values="0 0 0 0 0 0 0 0 0 0 0 0 0 0 0 0 0 0 127 0" result="hardAlpha_3_1641"/>
<feOffset dx="0" dy="2"/>
<feGaussianBlur stdDeviation="4"/>
<feComposite in2="hardAlpha_3_1641" operator="arithmetic" k2="-1" k3="1"/>
<feColorMatrix type="matrix" values="0 0 0 0 1 0 0 0 0 1 0 0 0 0 1 0 0 0 0.4 0"/>
<feBlend mode="normal" in2="shape_3_1641" result="innerShadow_0_3_1641" />
</filter>
<linearGradient id="linear_fill_3_1642_0" x1="33.08837890625" y1="52.87811279296875" x2="71.89453125" y2="76.546875" gradientUnits="userSpaceOnUse">
<stop offset="0" stop-color="#D8FF18"  />
<stop offset="0.4531" stop-color="#FEFFAB"  />
</linearGradient>
<linearGradient id="linear_border_3_1642_0" x1="34.30126953125" y1="53.9539794921875" x2="71.89453125" y2="53.9539794921875" gradientUnits="userSpaceOnUse">
<stop offset="0" stop-color="#D8FF18"  />
<stop offset="0.65625" stop-color="#364AFF"  />
</linearGradient>
<filter id="filter_3_1642" x="33.08837890625" y="52.87811279296875" width="38.81982421875" height="23.69000244140625" filterUnits="userSpaceOnUse" color-interpolation-filters="sRGB">
<feFlood flood-opacity="0" result="feFloodId_3_1642"/>
<feGaussianBlur in="feFloodId_3_1642" stdDeviation_bg="6" type="BackgroundImage" />
<feComposite in2="SourceAlpha" operator="in" result="background_Blur_3_1642"/>
<feBlend mode="normal" in="SourceGraphic" in2="background_Blur_3_1642" result="shape_3_1642"/>
<feBlend mode="normal" in="SourceGraphic" in2="feFloodId_3_1642" result="shape_3_1642"/>
<feColorMatrix in="SourceAlpha" type="matrix" values="0 0 0 0 0 0 0 0 0 0 0 0 0 0 0 0 0 0 127 0" result="hardAlpha_3_1642"/>
<feOffset dx="0" dy="2"/>
<feGaussianBlur stdDeviation="4"/>
<feComposite in2="hardAlpha_3_1642" operator="arithmetic" k2="-1" k3="1"/>
<feColorMatrix type="matrix" values="0 0 0 0 1 0 0 0 0 1 0 0 0 0 1 0 0 0 0.4 0"/>
<feBlend mode="normal" in2="shape_3_1642" result="innerShadow_0_3_1642" />
</filter>
<linearGradient id="linear_fill_3_1643_0" x1="32.8125" y1="64.70001220703125" x2="52.5" y2="98.08126831054688" gradientUnits="userSpaceOnUse">
<stop offset="0" stop-color="#D8FF18"  />
<stop offset="0.4531" stop-color="#FEFFAB"  />
</linearGradient>
<linearGradient id="linear_border_3_1643_0" x1="33.427734375" y1="66.21734619140625" x2="52.5" y2="66.21734619140625" gradientUnits="userSpaceOnUse">
<stop offset="0" stop-color="#D8FF18"  />
<stop offset="0.65625" stop-color="#364AFF"  />
</linearGradient>
<filter id="filter_3_1643" x="32.8125" y="64.70001220703125" width="19.68994140625" height="33.360015869140625" filterUnits="userSpaceOnUse" color-interpolation-filters="sRGB">
<feFlood flood-opacity="0" result="feFloodId_3_1643"/>
<feGaussianBlur in="feFloodId_3_1643" stdDeviation_bg="6" type="BackgroundImage" />
<feComposite in2="SourceAlpha" operator="in" result="background_Blur_3_1643"/>
<feBlend mode="normal" in="SourceGraphic" in2="background_Blur_3_1643" result="shape_3_1643"/>
<feBlend mode="normal" in="SourceGraphic" in2="feFloodId_3_1643" result="shape_3_1643"/>
<feColorMatrix in="SourceAlpha" type="matrix" values="0 0 0 0 0 0 0 0 0 0 0 0 0 0 0 0 0 0 127 0" result="hardAlpha_3_1643"/>
<feOffset dx="0" dy="2"/>
<feGaussianBlur stdDeviation="4"/>
<feComposite in2="hardAlpha_3_1643" operator="arithmetic" k2="-1" k3="1"/>
<feColorMatrix type="matrix" values="0 0 0 0 1 0 0 0 0 1 0 0 0 0 1 0 0 0 0.4 0"/>
<feBlend mode="normal" in2="shape_3_1643" result="innerShadow_0_3_1643" />
</filter>
<linearGradient id="linear_fill_3_1644_0" x1="52.5" y1="64.70001220703125" x2="72.1875" y2="98.08126831054688" gradientUnits="userSpaceOnUse">
<stop offset="0" stop-color="#D8FF18"  />
<stop offset="0.4531" stop-color="#FEFFAB"  />
</linearGradient>
<linearGradient id="linear_border_3_1644_0" x1="53.115234375" y1="66.21734619140625" x2="72.1875" y2="66.21734619140625" gradientUnits="userSpaceOnUse">
<stop offset="0" stop-color="#D8FF18"  />
<stop offset="0.65625" stop-color="#364AFF"  />
</linearGradient>
<filter id="filter_3_1644" x="52.5" y="64.70001220703125" width="19.68994140625" height="33.360015869140625" filterUnits="userSpaceOnUse" color-interpolation-filters="sRGB">
<feFlood flood-opacity="0" result="feFloodId_3_1644"/>
<feGaussianBlur in="feFloodId_3_1644" stdDeviation_bg="6" type="BackgroundImage" />
<feComposite in2="SourceAlpha" operator="in" result="background_Blur_3_1644"/>
<feBlend mode="normal" in="SourceGraphic" in2="background_Blur_3_1644" result="shape_3_1644"/>
<feBlend mode="normal" in="SourceGraphic" in2="feFloodId_3_1644" result="shape_3_1644"/>
<feColorMatrix in="SourceAlpha" type="matrix" values="0 0 0 0 0 0 0 0 0 0 0 0 0 0 0 0 0 0 127 0" result="hardAlpha_3_1644"/>
<feOffset dx="0" dy="2"/>
<feGaussianBlur stdDeviation="4"/>
<feComposite in2="hardAlpha_3_1644" operator="arithmetic" k2="-1" k3="1"/>
<feColorMatrix type="matrix" values="0 0 0 0 1 0 0 0 0 1 0 0 0 0 1 0 0 0 0.4 0"/>
<feBlend mode="normal" in2="shape_3_1644" result="innerShadow_0_3_1644" />
</filter>
</defs>
</svg>
