<svg xmlns="http://www.w3.org/2000/svg" xmlns:xlink="http://www.w3.org/1999/xlink" width="273.65576171875" height="268.7310791015625" viewBox="0 0 273.65576171875 268.7310791015625" fill="none">
<path     fill="#D8FF18"  d="M56.8128 167.337L172.592 45.8364C174.48 43.856 177.096 42.7351 179.831 42.735L261.054 42.7313L54.049 268.731L54.0522 174.235C54.0523 171.667 55.0408 169.197 56.8128 167.337Z">
</path>
<g >
<path     fill="#000000"  d="M84.762 205.41Q84.8685 200.476 84.7233 196.541Q84.578 192.606 83.7801 188.859Q82.9823 185.112 81.2673 183.574Q79.5166 182.003 77.3801 182.408Q75.2437 182.812 73.3845 184.885Q72.0702 186.35 71.0872 188.595Q70.1042 190.841 69.6337 193.45L65.4893 189.731Q65.9561 187.055 67.2166 184.284Q68.4771 181.514 70.2401 179.549Q73.8302 175.547 77.877 174.954Q81.9237 174.361 85.2822 177.374Q87.6759 179.521 88.9667 183.581Q90.2574 187.641 90.524 191.621Q90.7907 195.6 90.763 200.734L89.1188 201.129L99.3764 189.697L103.664 193.543L88.1171 210.871L84.6872 207.794L84.762 205.41ZM115.347 181.455Q107.302 190.423 94.3324 178.787Q81.3631 167.151 89.4089 158.183Q97.4546 149.215 110.424 160.851Q123.393 172.487 115.347 181.455ZM99.0444 173.535Q103.225 177.285 105.975 178.173Q108.725 179.061 110.488 177.096Q112.251 175.131 111.072 172.492Q109.892 169.854 105.712 166.103Q101.567 162.385 98.817 161.497Q96.0666 160.61 94.3036 162.575Q92.5406 164.54 93.7203 167.178Q94.9 169.816 99.0444 173.535ZM119.391 152.582Q117.051 155.19 114.365 155.165Q111.678 155.141 107.855 151.711Q104.104 148.345 103.771 145.661Q103.439 142.977 105.779 140.369Q108.119 137.76 110.839 137.783Q113.56 137.806 117.311 141.171Q121.134 144.601 121.433 147.287Q121.731 149.973 119.391 152.582ZM110.804 148.424Q112.876 150.283 113.993 150.512Q115.111 150.74 116.104 149.632Q116.809 148.846 116.892 148.179Q116.975 147.512 116.385 146.66Q115.795 145.808 114.33 144.494Q112.901 143.212 112.008 142.733Q111.116 142.255 110.443 142.393Q109.771 142.532 109.066 143.318Q108.072 144.425 108.42 145.511Q108.768 146.597 110.804 148.424ZM117.163 128.399L120.849 124.29L133.175 160.434L129.489 164.543L117.163 128.399ZM132.991 147.63Q129.24 144.264 128.907 141.58Q128.575 138.895 130.915 136.287Q133.255 133.679 135.991 133.684Q138.728 133.688 142.479 137.054Q146.267 140.452 146.583 143.154Q146.899 145.856 144.527 148.5Q142.187 151.108 139.501 151.084Q136.814 151.06 132.991 147.63ZM135.972 144.307Q138.08 146.198 139.163 146.428Q140.247 146.659 141.24 145.551Q141.946 144.765 142.044 144.08Q142.143 143.395 141.535 142.527Q140.927 141.659 139.498 140.377Q137.426 138.518 136.327 138.305Q135.228 138.093 134.202 139.236Q133.208 140.344 133.572 141.412Q133.936 142.48 135.972 144.307ZM164.199 127.006Q160.673 130.936 156.626 132.464Q152.579 133.992 148.326 132.981Q144.073 131.971 140.072 128.381Q135.999 124.727 134.392 120.48Q132.785 116.233 133.776 111.931Q134.766 107.628 138.26 103.734Q141.754 99.8394 145.909 98.4076Q150.063 96.9758 154.458 98.1143Q158.854 99.2527 162.927 102.907Q166.964 106.529 168.41 110.632Q169.856 114.734 168.807 118.887Q167.757 123.04 164.199 127.006ZM145.682 122.129Q149.54 125.591 153.312 125.879Q157.083 126.168 159.84 123.095Q162.565 120.058 161.87 116.34Q161.176 112.621 157.317 109.159Q154.781 106.883 152.107 105.839Q149.433 104.794 146.959 105.251Q144.486 105.708 142.691 107.709Q140.896 109.709 140.725 112.2Q140.554 114.691 141.849 117.272Q143.145 119.853 145.682 122.129ZM153.342 87.8585L168.215 71.2808L173.039 75.6082L163.454 86.2908L168.885 91.1631L177.155 81.9453L181.657 85.9842L173.387 95.2021L183.641 104.402L178.351 110.297L153.342 87.8585ZM171.1 68.0652L185.974 51.4874L190.797 55.8148L181.213 66.4975L186.643 71.3699L194.913 62.152L199.415 66.1909L191.145 75.4088L201.399 84.6085L196.11 90.5036L171.1 68.0652Z">
</path>
</g>
</svg>
