<svg xmlns="http://www.w3.org/2000/svg" xmlns:xlink="http://www.w3.org/1999/xlink" width="68.5006103515625" height="62.6773681640625" viewBox="0 0 68.5006103515625 62.6773681640625" fill="none">
<path d="M64.0685 0L4.36944 0C1.9576 0 0 1.95867 0 4.37181L0 58.3056C0 60.7187 1.9576 62.6773 4.36944 62.6773L64.1311 62.6773C66.5429 62.6773 68.5162 60.7187 68.5005 58.2899L68.4379 4.37181C68.4379 1.95867 66.4802 0 64.0685 0ZM54.8912 3.05544L62.6433 3.05544C64.2251 3.05544 65.4935 4.30907 65.4935 5.84463L65.4935 12.9743L54.8912 12.9743L54.8912 3.05544ZM42.1276 3.05544L51.7591 3.05544L51.7591 12.9743L42.1276 12.9743L42.1276 3.05544ZM29.3327 3.05544L38.9642 3.05544L38.9642 12.9743L29.3327 12.9743L29.3327 3.05544ZM16.6005 3.05544L26.2319 3.05544L26.2319 12.9743L16.6005 12.9743L16.6005 3.05544ZM2.92858 5.84463C2.92858 4.30907 4.21267 3.05544 5.77875 3.05544L13.5467 3.05544L13.5467 12.9743L2.92858 12.9743L2.92858 5.84463ZM13.5467 59.6845L5.77875 59.6845C4.21267 59.6845 2.92858 58.4309 2.92858 56.8955L2.92858 49.7815L13.5467 49.7815L13.5467 59.6845ZM26.2319 59.7002L16.6005 59.7002L16.6005 49.7815L26.2319 49.7815L26.2319 59.7002ZM38.9642 59.7002L29.3327 59.7002L29.3327 49.7815L38.9642 49.7815L38.9642 59.7002ZM51.7591 59.7002L42.1276 59.7002L42.1276 49.7815L51.7591 49.7815L51.7591 59.7002ZM65.4935 56.9109C65.4935 58.4466 64.2251 59.7002 62.659 59.7002L54.8912 59.7002L54.8912 49.7815L65.5093 49.7815L65.5093 56.9109L65.4935 56.9109ZM65.5093 46.8043L2.99127 46.8043L2.99127 16.0297L65.5093 16.0297L65.5093 46.8043Z"   fill="#D8FF18" >
</path>
</svg>
