<svg xmlns="http://www.w3.org/2000/svg" xmlns:xlink="http://www.w3.org/1999/xlink" width="62.643310546875" height="62.677490234375" viewBox="0 0 62.643310546875 62.677490234375" fill="none">
<path d="M31.447 11.3132C25.8717 11.3132 20.6566 13.4599 16.757 17.3929C12.9045 21.2946 10.7747 26.4812 10.7747 31.9969C10.7747 32.9056 11.495 33.7519 12.2624 33.7519C13.3587 33.7519 14.032 32.8429 14.032 31.9969C14.032 22.5168 21.8468 14.8231 31.447 14.8231C41.0627 14.8231 48.6112 22.5168 48.6112 31.9969C48.6112 32.8429 49.2847 33.7519 50.3809 33.7519C51.1483 33.7519 51.8687 32.8899 51.8687 31.9969C51.8687 20.5895 42.7071 11.3132 31.447 11.3132Z"   fill="#D8FF18" >
</path>
<path d="M31.4466 32.8746C30.5384 32.8746 29.6613 33.094 29.0507 33.5171L28.5024 33.8775L21.4082 27.9076L21.3768 27.8762C21.1576 27.6725 20.9226 27.547 20.719 27.547C20.5624 27.547 20.4372 27.6097 20.3588 27.7507L20.3118 27.8134L20.2493 27.8762C19.7951 28.3305 20.0769 28.8163 20.2179 28.9886L27.5471 35.1936L27.234 35.8048C27.0774 36.1339 27.0617 36.4786 27.0617 37.2621C27.0617 39.4558 29.1132 41.3831 31.4466 41.3831C33.6078 41.3831 35.5811 39.4088 35.5811 37.2621C35.5811 34.9117 33.6549 32.8746 31.4466 32.8746Z"   fill="#D8FF18" >
</path>
<path d="M60.5916 2.16249L60.5291 2.11545L60.4822 2.0529C59.4017 0.767904 57.6006 0.00012207 55.6273 0.00012207L7.01602 0.00012207C5.04274 0.00012207 3.22623 0.767904 2.1612 2.0529L2.11418 2.11545L2.05166 2.16249C0.767365 3.2281 0 5.0456 0 7.01995L0 55.6576C0 57.6319 0.767365 59.4341 2.05166 60.5151L2.11418 60.5621L2.1612 60.6246C3.22623 61.9097 5.04274 62.6775 7.01602 62.6775L55.6273 62.6775C57.6006 62.6775 59.4171 61.9097 60.4822 60.6246L60.5291 60.5621L60.5916 60.5151C61.876 59.4341 62.6434 57.6319 62.6434 55.6576L62.6434 7.01995C62.6434 5.0456 61.876 3.2281 60.5916 2.16249ZM59.6521 55.6576C59.6521 56.9425 58.7438 57.9923 58.3523 58.3841C57.9608 58.7758 56.9115 59.6846 55.6273 59.6846L7.01602 59.6846C5.73191 59.6846 4.68258 58.7758 4.29105 58.3841C3.63324 57.7103 3.25739 56.7231 3.25739 55.6576L3.25739 7.01995C3.25739 5.95455 3.63324 4.96736 4.29105 4.2935C4.96455 3.63533 5.9512 3.25928 7.01602 3.25928L55.6273 3.25928C56.6922 3.25928 57.6945 3.63533 58.3523 4.2935C58.7438 4.68524 59.6521 5.73515 59.6521 7.01995L59.6521 55.6576Z"   fill="#D8FF18" >
</path>
</svg>
