<svg xmlns="http://www.w3.org/2000/svg" xmlns:xlink="http://www.w3.org/1999/xlink" width="62.2418212890625" height="62.677490234375" viewBox="0 0 62.2418212890625 62.677490234375" fill="none">
<path d="M20.645 51.4426C19.7836 51.1449 18.9693 50.8002 18.1862 50.3615C14.6468 48.3871 12.1882 45.4883 10.857 41.6649C10.5123 40.6934 9.97992 40.2703 9.02464 40.2546C8.99329 40.2391 8.94626 40.2391 8.89942 40.2391C8.49222 40.2391 8.11638 40.4428 7.80305 40.7562C6.03336 42.5111 4.27936 44.2818 2.52535 46.0367C1.99293 46.5851 1.80501 47.2276 2.0868 47.964C2.38446 48.7161 2.94822 49.0921 3.74694 49.1392C4.29504 49.1549 4.84312 49.1549 5.39122 49.1549C6.29967 49.1863 6.31535 49.2019 6.03336 50.0325C5.39122 51.9754 4.73359 53.9027 4.10711 55.8457C3.79397 56.833 4.09143 57.6478 4.90583 58.102C5.17212 58.2432 5.43825 58.3057 5.70455 58.3057C5.97084 58.3057 6.26832 58.2432 6.56578 58.149C8.44519 57.5222 10.3401 56.8956 12.2195 56.2689C12.5327 56.159 12.7362 56.0965 12.8615 56.0965C13.1121 56.0965 13.1121 56.3157 13.1278 56.9425C13.1434 57.4597 13.1278 57.9767 13.1591 58.5094C13.1905 59.3399 13.582 59.9197 14.3807 60.2175C14.5998 60.2957 14.8034 60.3429 14.9913 60.3429C15.4926 60.3429 15.9311 60.092 16.3226 59.6846C17.9983 57.9767 19.7053 56.3002 21.381 54.6078C22.5243 53.4483 22.1797 51.9598 20.645 51.4426Z"   fill="#D8FF18" >
</path>
<path d="M61.974 1.67666C61.8017 0.548511 61.7392 0.485964 60.5803 0.282255C59.4997 0.0785452 58.4191 0.00012207 57.3385 0.00012207C56.2579 0.00012207 55.2243 0.0785452 54.1751 0.188146C49.9466 0.626933 45.8278 1.56706 41.8342 3.0087C34.7555 5.56281 28.5068 9.37035 23.4485 15.027C23.2606 15.2464 22.9787 15.3718 22.6811 15.3561C22.6028 15.3561 22.5402 15.3561 22.4619 15.3405C20.332 15.1211 18.2021 14.745 16.0566 14.745L15.9156 14.745C12.11 14.7764 9.15008 16.5156 7.08294 19.7435C5.95539 21.5141 4.84335 23.2848 3.71582 25.0554C2.66648 26.7007 1.60165 28.3145 0.58365 29.9756C-0.857216 32.326 0.505269 35.1619 3.18339 35.3657C6.42511 35.6008 9.65133 35.8046 12.8774 35.9769C13.4568 36.0083 13.7074 36.1649 13.7545 36.7917C13.9581 38.8444 14.5062 40.8031 15.6023 42.5737C17.7478 46.0053 20.8643 47.9011 24.858 48.434C26.3613 48.6377 26.3144 48.6534 26.4241 50.189C26.6433 53.2915 26.8626 56.4097 27.1601 59.4966C27.3479 61.4396 28.8358 62.6775 30.4959 62.6775C31.1536 62.6775 31.8426 62.4738 32.4848 62.0664C36.0868 59.7003 39.7201 57.3812 43.2125 54.8585C46.4699 52.5081 47.8949 49.2018 47.4722 45.159C47.2998 43.4355 47.159 41.6805 46.9711 39.9569C46.9239 39.4242 47.0494 39.0168 47.4722 38.625C52.5775 33.9399 56.2266 28.2676 58.7167 21.8277C60.7994 16.4373 62.0525 10.8745 62.2247 5.09266C62.2247 4.93599 62.2404 4.76366 62.2404 4.60681C62.2561 3.61983 62.1308 2.64815 61.974 1.66117L61.974 1.67666ZM58.3565 4.92031L58.3565 4.98305C58.278 7.6154 57.9493 10.2322 57.4012 12.802C56.8374 15.403 56.07 17.9415 55.1146 20.4173C53.94 23.4414 52.515 26.2463 50.855 28.7377C49.1479 31.3075 47.1277 33.6735 44.8569 35.7574C43.557 36.9484 42.9462 38.578 43.1185 40.3487C43.2125 41.1791 43.2908 42.0251 43.3689 42.8558C43.4474 43.7332 43.5257 44.6577 43.6197 45.5507C43.7604 46.8986 43.604 48.0891 43.1655 49.0921C42.7426 50.095 42.0064 50.9411 40.9573 51.7089C38.0912 53.7771 35.0219 55.7673 32.062 57.6945C31.7018 57.9296 31.3416 58.1647 30.9814 58.4154C30.7151 55.5009 30.5115 52.6177 30.3236 49.9226L30.3236 49.8129C30.0885 46.4754 28.7104 45.0181 25.3903 44.5794C22.4619 44.1876 20.4103 42.9028 18.9224 40.521C18.2178 39.3928 17.7949 38.0609 17.654 36.4313C17.4191 33.9399 15.6337 32.2476 13.0966 32.1066C10.1367 31.9342 7.16112 31.7619 4.2014 31.5425C4.76515 30.6337 5.3446 29.7405 5.95539 28.8004C6.2999 28.2519 6.66007 27.7037 7.00456 27.1551C7.49012 26.403 7.95984 25.6508 8.41407 24.93C9.05621 23.9115 9.71385 22.8773 10.3717 21.8588C11.7655 19.681 13.5352 18.6623 15.9625 18.6466L16.0722 18.6466C17.3721 18.6466 18.7502 18.819 20.2067 19.007C20.8018 19.0855 21.4283 19.1637 22.0545 19.2264C22.2739 19.2421 22.4775 19.2577 22.6811 19.2577C24.0906 19.2734 25.4218 18.678 26.3456 17.6125C28.5853 15.1211 31.1536 12.943 33.9881 11.1253C36.6976 9.38604 39.7827 7.88184 43.1498 6.67527C46.8458 5.34341 50.6827 4.46585 54.5822 4.05843C55.6628 3.94883 56.5398 3.90177 57.3542 3.90177C57.6987 3.90177 58.0276 3.91746 58.3408 3.93314C58.3565 4.26213 58.3722 4.60681 58.3565 4.92031Z"   fill="#D8FF18" >
</path>
<path d="M43.2593 10.0912L43.1027 10.0912C38.1225 10.0912 33.8314 13.758 33.7219 19.4302C33.6278 24.2093 37.9502 28.534 42.7894 28.581L42.8521 28.581C47.9575 28.5968 52.1077 24.4757 52.1547 19.3675C52.2172 14.4159 48.1141 10.1853 43.2593 10.0912ZM46.6577 23.1282C45.6554 24.131 44.2773 24.6794 42.8521 24.6794L42.805 24.6794C41.4896 24.6637 40.1428 24.0526 39.1091 22.9872C38.1225 21.9687 37.59 20.6994 37.6057 19.5085C37.6371 17.8476 38.2165 16.453 39.2657 15.4502C40.2523 14.51 41.6148 13.993 43.1027 13.993L43.1966 13.993C45.9372 14.0242 48.302 16.5158 48.2552 19.3204C48.2552 20.7464 47.6755 22.1253 46.6577 23.1282Z"   fill="#D8FF18" >
</path>
</svg>
