<svg xmlns="http://www.w3.org/2000/svg" xmlns:xlink="http://www.w3.org/1999/xlink" width="28.58349609375" height="28.58349609375" viewBox="0 0 28.58349609375 28.58349609375" fill="none">
<path d="M8.07982 0.666626C8.68532 0.666626 9.24313 0.994976 9.53705 1.52434L11.5757 5.19669C11.8426 5.67752 11.8552 6.2591 11.6092 6.75102L9.64522 10.6791C9.64522 10.6791 10.2144 13.6053 12.5964 15.9873C14.9784 18.3693 17.8948 18.9286 17.8948 18.9286L21.8222 16.965C22.3145 16.7188 22.8965 16.7315 23.3775 16.999L27.0602 19.0465C27.589 19.3405 27.917 19.898 27.917 20.5031L27.917 24.731C27.917 26.8841 25.9171 28.4392 23.877 27.7508C19.6871 26.337 13.1832 23.6452 9.06088 19.5228C4.93849 15.4005 2.24666 8.89652 0.832881 4.7066C0.144531 2.66652 1.6996 0.666626 3.85265 0.666626L8.07982 0.666626Z" stroke="rgba(255, 255, 255, 1)" stroke-width="1.3333333333333333" stroke-linejoin="round"  >
</path>
</svg>
