<svg xmlns="http://www.w3.org/2000/svg" xmlns:xlink="http://www.w3.org/1999/xlink" width="358" height="115" viewBox="0 0 358 115" fill="none">
<path     fill="#D8FF18"  d="M0 5L67.5 5C91.9999 5 88.9999 5.00015 92 14.5L92 115L0 5Z">
</path>
<g >
<path     fill="#131315"  d="M34.6065 27.0303L46.4552 11.2507L46.7466 10.0691L51.6184 15.468L42.9286 26.9565L58.082 22.6308L62.7126 27.7624L41.0942 34.2199L34.6065 27.0303ZM71.3708 37.3574L54.1177 48.6525L49.7283 43.7882L65.4816 32.873L65.7996 31.1835L71.3708 37.3574ZM89.628 57.5898L80.4915 63.9619Q79.522 64.4459 78.4465 64.2751Q77.371 64.1042 76.8404 63.5162L68.7369 54.5359L62.8966 58.3812L58.5072 53.5169L74.5282 42.361L74.5785 40.9121L89.628 57.5898ZM77.121 48.8884L71.7655 52.7336L76.6373 58.1324L82.2099 54.5278L77.121 48.8884Z">
</path>
</g>
</svg>
