<?xml version="1.0" encoding="utf-8"?>
<!-- Generator: Adobe Illustrator 28.0.0, SVG Export Plug-In . SVG Version: 6.00 Build 0)  -->
<svg version="1.1" id="图层_1" xmlns="http://www.w3.org/2000/svg" xmlns:xlink="http://www.w3.org/1999/xlink" x="0px" y="0px"
	 viewBox="0 0 150 150" style="enable-background:new 0 0 150 150;" xml:space="preserve">
<style type="text/css">
	.st0{fill:#305BF5;}
</style>
<g>
	<path class="st0" d="M48.6,77.2h8.8l1.9-7.3h-1.5C51.6,69.9,50.6,69.9,48.6,77.2z"/>
	<polygon class="st0" points="34.4,92 53.9,92 55.8,84.7 43.6,84.7 48.8,65.3 60.9,65.3 62.9,58 43.4,58 	"/>
	<path class="st0" d="M89.4,58H65.8c-1.9,7.3-1,7.3,5.4,7.3h1.5L65.6,92h7.3l7.1-26.8h7.5L89.4,58z"/>
	<path class="st0" d="M108.1,73.4c1.8-1.5,3.2-3.5,3.9-6.2l2.4-9.3H92.7c-1.9,7.3,0.5,7.3,6.8,7.3h5.7l-0.5,1.9
		c-0.6,2.3-2.4,3.4-5.4,3.4h-3.6l-0.2,1l-1.7,6.3h5.8c2.7,0,4,0.6,3.3,3.4c-0.6,2.3-2.4,3.4-5.1,3.4H85.2L83.3,92h12.6
		c5.7,0,12.2-2.8,14.3-10.7C111.3,77.2,110.1,74.8,108.1,73.4z"/>
	<path class="st0" d="M130.5,58h-10.2l-6.4,24.4h7.3l4.5-17h2.8c4.1,0,5,2.8,3.1,9.7c-1.9,7-4,9.7-8.2,9.7h-3.4
		c-6.3,0-7.3,0-9.3,7.3h10.7c7.2,0,14.2-4.8,17.4-17C142.2,62.8,137.6,58,130.5,58z"/>
	<path class="st0" d="M28.6,69.9l-3.9,14.9h-3.3c-4.1,0-5-2.8-3.1-9.7c1.9-7,4-9.7,8.2-9.7h9.7l1.9-7.3h-9.7
		c-7.2,0-14.2,4.8-17.4,17c-3.2,12.2,1.3,17,8.5,17h10.6l1.9-7.3l3.9-14.9H28.6z"/>
</g>
</svg>
