<svg xmlns="http://www.w3.org/2000/svg" xmlns:xlink="http://www.w3.org/1999/xlink" width="262.29931640625" height="291.999755859375" viewBox="0 0 262.29931640625 291.999755859375" fill="none">
<path     fill="#D8FF18"  d="M54.3974 191.631L165.236 71.3758C167.046 69.4122 169.555 68.3006 172.177 68.3005L249.935 68.2968L51.747 292L51.75 198.469C51.7501 195.924 52.6981 193.475 54.3974 191.631Z">
</path>
<g >
<path     fill="#000000"  d="M89.2046 177.454L103.802 160.632L108.553 165.039L99.1464 175.879L104.495 180.841L112.612 171.487L117.046 175.6L108.93 184.954L119.03 194.322L113.839 200.304L89.2046 177.454ZM116.983 157.155L119.024 159.048Q118.857 157.191 119.46 155.362Q120.062 153.533 121.195 152.228Q121.982 151.322 122.92 150.752L127.249 154.768Q126.121 155.554 125.335 156.46Q124.139 157.838 123.51 159.479Q122.88 161.119 123.106 162.834L135.986 174.782L130.953 180.582L111.95 162.955L116.983 157.155ZM158.215 147.044Q157.829 149.173 156.627 151.363Q155.426 153.552 153.947 155.256Q148.913 161.057 143.643 161.567Q138.373 162.077 133.552 157.605Q128.766 153.165 128.527 148.134Q128.288 143.103 132.283 138.499Q136.247 133.931 141.111 133.633Q145.975 133.335 150.761 137.774Q151.289 138.264 152.211 139.251L139.973 153.353Q145.205 156.766 149.83 151.437Q153.07 147.703 153.534 142.703L158.215 147.044ZM143.582 140.996Q141.414 139.835 139.562 140.212Q137.711 140.589 136.295 142.22Q134.974 143.743 134.926 145.628Q134.877 147.514 136.189 149.516L143.582 140.996ZM177.311 125.039Q176.925 127.167 175.723 129.357Q174.522 131.547 173.043 133.251Q168.01 139.051 162.74 139.561Q157.47 140.071 152.648 135.599Q147.862 131.16 147.623 126.129Q147.384 121.097 151.38 116.493Q155.344 111.925 160.207 111.627Q165.071 111.329 169.857 115.769Q170.385 116.259 171.307 117.245L159.069 131.347Q164.301 134.761 168.926 129.432Q172.166 125.698 172.631 120.697L177.311 125.039ZM162.678 118.991Q160.51 117.83 158.658 118.207Q156.807 118.583 155.391 120.215Q154.07 121.737 154.022 123.623Q153.974 125.508 155.285 127.51L162.678 118.991Z">
</path>
</g>
</svg>
